<svg width="1676" height="162" viewBox="0 0 1676 162" fill="none" xmlns="http://www.w3.org/2000/svg">
<rect width="1676" height="162" fill="url(#paint0_linear_428_23)"/>
<path d="M36.9392 53.12H50.3792C52.8992 53.12 54.8792 53.84 56.3192 55.28C57.7992 56.68 58.5392 58.78 58.5392 61.58C58.5392 62.86 58.3792 64.12 58.0592 65.36C57.7792 66.6 57.3192 67.74 56.6792 68.78C56.0392 69.82 55.2192 70.72 54.2192 71.48C53.2192 72.2 52.0192 72.7 50.6192 72.98L50.5592 73.4C52.4392 73.8 53.8792 74.6 54.8792 75.8C55.8792 76.96 56.3792 78.72 56.3792 81.08C56.3792 83.04 56.0992 84.88 55.5392 86.6C54.9792 88.28 54.1592 89.74 53.0792 90.98C52.0392 92.22 50.7592 93.2 49.2392 93.92C47.7192 94.64 46.0192 95 44.1392 95H28.5392L36.9392 53.12ZM44.1992 92.06C46.3192 92.06 48.0792 91.42 49.4792 90.14C50.8792 88.86 51.7992 87.02 52.2392 84.62C52.4392 83.5 52.5792 82.62 52.6592 81.98C52.7392 81.34 52.7792 80.86 52.7792 80.54C52.7792 78.86 52.2992 77.46 51.3392 76.34C50.4192 75.22 48.9992 74.66 47.0792 74.66H35.9792L32.4992 92.06H44.1992ZM46.7192 71.78C51.0392 71.78 53.6392 69.54 54.5192 65.06C54.7192 64.14 54.8392 63.4 54.8792 62.84C54.9192 62.28 54.9392 61.84 54.9392 61.52C54.9392 59.84 54.5592 58.52 53.7992 57.56C53.0392 56.56 51.7192 56.06 49.8392 56.06H39.6992L36.5192 71.78H46.7192ZM71.9647 95.72C68.5647 95.72 66.0247 94.74 64.3447 92.78C62.7047 90.82 61.8847 88.06 61.8847 84.5C61.8847 83.46 61.9447 82.34 62.0647 81.14C62.2247 79.9 62.4047 78.74 62.6047 77.66C63.4847 73.26 65.1247 69.82 67.5247 67.34C69.9647 64.82 72.9447 63.56 76.4647 63.56C78.9847 63.56 81.0647 64.22 82.7047 65.54C84.3847 66.86 85.2247 68.82 85.2247 71.42C85.2247 72.9 84.8847 74.24 84.2047 75.44C83.5647 76.6 82.4647 77.62 80.9047 78.5C79.3447 79.34 77.2847 80.02 74.7247 80.54C72.2047 81.02 69.0847 81.3 65.3647 81.38C65.2447 81.98 65.1647 82.56 65.1247 83.12C65.0847 83.64 65.0647 84.08 65.0647 84.44C65.0647 87.36 65.6447 89.5 66.8047 90.86C68.0047 92.22 69.7847 92.9 72.1447 92.9C74.2647 92.9 76.0647 92.36 77.5447 91.28C79.0247 90.2 80.2847 88.74 81.3247 86.9L83.4247 88.58C82.1447 90.98 80.5247 92.78 78.5647 93.98C76.6447 95.14 74.4447 95.72 71.9647 95.72ZM76.1647 66.32C73.4447 66.32 71.2647 67.24 69.6247 69.08C68.0247 70.88 66.9047 73.34 66.2647 76.46L65.7847 78.86C69.0247 78.74 71.6847 78.52 73.7647 78.2C75.8847 77.84 77.5447 77.36 78.7447 76.76C79.9847 76.16 80.8247 75.44 81.2647 74.6C81.7447 73.72 81.9847 72.72 81.9847 71.6C81.9847 69.72 81.4447 68.38 80.3647 67.58C79.3247 66.74 77.9247 66.32 76.1647 66.32ZM110.361 50.6H113.601L109.521 70.94H109.941C111.941 66.02 114.981 63.56 119.061 63.56C121.701 63.56 123.761 64.5 125.241 66.38C126.721 68.22 127.461 70.76 127.461 74C127.461 74.96 127.381 76.16 127.221 77.6C127.101 79 126.901 80.38 126.621 81.74C125.701 86.22 124.141 89.68 121.941 92.12C119.781 94.52 117.101 95.72 113.901 95.72C111.781 95.72 110.041 95.22 108.681 94.22C107.321 93.18 106.481 91.7 106.161 89.78H105.741L104.721 95H101.481L110.361 50.6ZM113.361 92.9C115.761 92.9 117.781 92.1 119.421 90.5C121.061 88.86 122.201 86.48 122.841 83.36L123.981 77.66C124.061 77.18 124.121 76.64 124.161 76.04C124.241 75.44 124.281 74.86 124.281 74.3C124.281 71.7 123.741 69.74 122.661 68.42C121.621 67.06 120.081 66.38 118.041 66.38C116.921 66.38 115.921 66.6 115.041 67.04C114.161 67.48 113.261 68.2 112.341 69.2C111.341 70.32 110.481 71.6 109.761 73.04C109.041 74.44 108.541 75.84 108.261 77.24L106.701 85.1C106.501 86.14 106.521 87.14 106.761 88.1C107.001 89.02 107.421 89.84 108.021 90.56C108.621 91.28 109.381 91.86 110.301 92.3C111.221 92.7 112.241 92.9 113.361 92.9ZM142.327 95.72C139.127 95.72 136.707 94.74 135.067 92.78C133.427 90.82 132.607 88.22 132.607 84.98C132.607 83.82 132.667 82.62 132.787 81.38C132.947 80.1 133.147 78.86 133.387 77.66C133.787 75.54 134.387 73.62 135.187 71.9C135.987 70.14 136.947 68.66 138.067 67.46C139.227 66.22 140.547 65.26 142.027 64.58C143.507 63.9 145.147 63.56 146.947 63.56C150.147 63.56 152.567 64.54 154.207 66.5C155.847 68.46 156.667 71.06 156.667 74.3C156.667 75.46 156.587 76.68 156.427 77.96C156.307 79.2 156.127 80.42 155.887 81.62C155.447 83.74 154.827 85.68 154.027 87.44C153.267 89.16 152.307 90.64 151.147 91.88C150.027 93.08 148.727 94.02 147.247 94.7C145.767 95.38 144.127 95.72 142.327 95.72ZM142.507 92.9C145.107 92.9 147.187 92.06 148.747 90.38C150.347 88.7 151.467 86.24 152.107 83L153.127 77.9C153.367 76.7 153.487 75.52 153.487 74.36C153.487 69.04 151.247 66.38 146.767 66.38C144.167 66.38 142.067 67.22 140.467 68.9C138.907 70.58 137.807 73.04 137.167 76.28L136.147 81.38C135.907 82.58 135.787 83.76 135.787 84.92C135.787 90.24 138.027 92.9 142.507 92.9ZM164.246 95C162.646 95 161.846 94.28 161.846 92.84C161.846 92.6 161.866 92.32 161.906 92C161.946 91.64 162.006 91.32 162.086 91.04L170.186 50.6H173.426L165.086 92.24H169.346L168.806 95H164.246ZM195.585 95C193.985 95 193.185 94.28 193.185 92.84C193.185 92.6 193.185 92.34 193.185 92.06C193.225 91.74 193.285 91.48 193.365 91.28L193.965 88.34H193.545C191.545 93.26 188.505 95.72 184.425 95.72C181.785 95.72 179.725 94.8 178.245 92.96C176.765 91.08 176.025 88.52 176.025 85.28C176.025 84.32 176.085 83.14 176.205 81.74C176.365 80.3 176.585 78.9 176.865 77.54C177.785 73.06 179.325 69.62 181.485 67.22C183.685 64.78 186.385 63.56 189.585 63.56C191.705 63.56 193.445 64.08 194.805 65.12C196.165 66.12 197.005 67.58 197.325 69.5H197.745L201.525 50.6H204.765L196.425 92.24H200.505L199.965 95H195.585ZM185.445 92.9C186.565 92.9 187.565 92.68 188.445 92.24C189.325 91.8 190.225 91.08 191.145 90.08C192.145 88.96 193.005 87.7 193.725 86.3C194.445 84.86 194.945 83.44 195.225 82.04L196.785 74.18C196.985 73.14 196.965 72.16 196.725 71.24C196.485 70.28 196.065 69.44 195.465 68.72C194.865 68 194.105 67.44 193.185 67.04C192.265 66.6 191.245 66.38 190.125 66.38C187.725 66.38 185.705 67.2 184.065 68.84C182.425 70.44 181.285 72.8 180.645 75.92L179.505 81.62C179.425 82.1 179.345 82.64 179.265 83.24C179.225 83.84 179.205 84.42 179.205 84.98C179.205 87.58 179.725 89.56 180.765 90.92C181.845 92.24 183.405 92.9 185.445 92.9ZM210.475 89.96C211.195 89.96 211.755 90.12 212.155 90.44C212.555 90.76 212.755 91.18 212.755 91.7C212.755 91.98 212.695 92.36 212.575 92.84C212.495 93.28 212.415 93.66 212.335 93.98C212.135 94.66 211.855 95.4 211.495 96.2C211.135 97.04 210.695 97.86 210.175 98.66C209.695 99.5 209.115 100.32 208.435 101.12C207.795 101.92 207.095 102.64 206.335 103.28H203.575C205.015 101.92 206.175 100.58 207.055 99.26C207.935 97.98 208.635 96.74 209.155 95.54C207.835 95.42 207.175 94.84 207.175 93.8C207.175 93.28 207.275 92.68 207.475 92C207.675 91.4 207.975 90.92 208.375 90.56C208.815 90.16 209.515 89.96 210.475 89.96ZM243.252 50.6H246.492L242.412 70.94H242.832C244.832 66.02 247.872 63.56 251.952 63.56C254.592 63.56 256.652 64.5 258.132 66.38C259.612 68.22 260.352 70.76 260.352 74C260.352 74.96 260.272 76.16 260.112 77.6C259.992 79 259.792 80.38 259.512 81.74C258.592 86.22 257.032 89.68 254.832 92.12C252.672 94.52 249.992 95.72 246.792 95.72C244.672 95.72 242.932 95.22 241.572 94.22C240.212 93.18 239.372 91.7 239.052 89.78H238.632L237.612 95H234.372L243.252 50.6ZM246.252 92.9C248.652 92.9 250.672 92.1 252.312 90.5C253.952 88.86 255.092 86.48 255.732 83.36L256.872 77.66C256.952 77.18 257.012 76.64 257.052 76.04C257.132 75.44 257.172 74.86 257.172 74.3C257.172 71.7 256.632 69.74 255.552 68.42C254.512 67.06 252.972 66.38 250.932 66.38C249.812 66.38 248.812 66.6 247.932 67.04C247.052 67.48 246.152 68.2 245.232 69.2C244.232 70.32 243.372 71.6 242.652 73.04C241.932 74.44 241.432 75.84 241.152 77.24L239.592 85.1C239.392 86.14 239.412 87.14 239.652 88.1C239.892 89.02 240.312 89.84 240.912 90.56C241.512 91.28 242.272 91.86 243.192 92.3C244.112 92.7 245.132 92.9 246.252 92.9ZM275.578 95.72C272.178 95.72 269.638 94.74 267.958 92.78C266.318 90.82 265.498 88.06 265.498 84.5C265.498 83.46 265.558 82.34 265.678 81.14C265.838 79.9 266.018 78.74 266.218 77.66C267.098 73.26 268.738 69.82 271.138 67.34C273.578 64.82 276.558 63.56 280.078 63.56C282.598 63.56 284.678 64.22 286.318 65.54C287.998 66.86 288.838 68.82 288.838 71.42C288.838 72.9 288.498 74.24 287.818 75.44C287.178 76.6 286.078 77.62 284.518 78.5C282.958 79.34 280.898 80.02 278.338 80.54C275.818 81.02 272.698 81.3 268.978 81.38C268.858 81.98 268.778 82.56 268.738 83.12C268.698 83.64 268.678 84.08 268.678 84.44C268.678 87.36 269.258 89.5 270.418 90.86C271.618 92.22 273.398 92.9 275.758 92.9C277.878 92.9 279.678 92.36 281.158 91.28C282.638 90.2 283.898 88.74 284.938 86.9L287.038 88.58C285.758 90.98 284.138 92.78 282.178 93.98C280.258 95.14 278.058 95.72 275.578 95.72ZM279.778 66.32C277.058 66.32 274.878 67.24 273.238 69.08C271.638 70.88 270.518 73.34 269.878 76.46L269.398 78.86C272.638 78.74 275.298 78.52 277.378 78.2C279.498 77.84 281.158 77.36 282.358 76.76C283.598 76.16 284.438 75.44 284.878 74.6C285.358 73.72 285.598 72.72 285.598 71.6C285.598 69.72 285.058 68.38 283.978 67.58C282.938 66.74 281.538 66.32 279.778 66.32ZM313.975 50.6H317.215L313.135 70.94H313.555C315.555 66.02 318.595 63.56 322.675 63.56C325.315 63.56 327.375 64.5 328.855 66.38C330.335 68.22 331.075 70.76 331.075 74C331.075 74.96 330.995 76.16 330.835 77.6C330.715 79 330.515 80.38 330.235 81.74C329.315 86.22 327.755 89.68 325.555 92.12C323.395 94.52 320.715 95.72 317.515 95.72C315.395 95.72 313.655 95.22 312.295 94.22C310.935 93.18 310.095 91.7 309.775 89.78H309.355L308.335 95H305.095L313.975 50.6ZM316.975 92.9C319.375 92.9 321.395 92.1 323.035 90.5C324.675 88.86 325.815 86.48 326.455 83.36L327.595 77.66C327.675 77.18 327.735 76.64 327.775 76.04C327.855 75.44 327.895 74.86 327.895 74.3C327.895 71.7 327.355 69.74 326.275 68.42C325.235 67.06 323.695 66.38 321.655 66.38C320.535 66.38 319.535 66.6 318.655 67.04C317.775 67.48 316.875 68.2 315.955 69.2C314.955 70.32 314.095 71.6 313.375 73.04C312.655 74.44 312.155 75.84 311.875 77.24L310.315 85.1C310.115 86.14 310.135 87.14 310.375 88.1C310.615 89.02 311.035 89.84 311.635 90.56C312.235 91.28 312.995 91.86 313.915 92.3C314.835 92.7 315.855 92.9 316.975 92.9ZM346.301 95.72C342.901 95.72 340.361 94.74 338.681 92.78C337.041 90.82 336.221 88.06 336.221 84.5C336.221 83.46 336.281 82.34 336.401 81.14C336.561 79.9 336.741 78.74 336.941 77.66C337.821 73.26 339.461 69.82 341.861 67.34C344.301 64.82 347.281 63.56 350.801 63.56C353.321 63.56 355.401 64.22 357.041 65.54C358.721 66.86 359.561 68.82 359.561 71.42C359.561 72.9 359.221 74.24 358.541 75.44C357.901 76.6 356.801 77.62 355.241 78.5C353.681 79.34 351.621 80.02 349.061 80.54C346.541 81.02 343.421 81.3 339.701 81.38C339.581 81.98 339.501 82.56 339.461 83.12C339.421 83.64 339.401 84.08 339.401 84.44C339.401 87.36 339.981 89.5 341.141 90.86C342.341 92.22 344.121 92.9 346.481 92.9C348.601 92.9 350.401 92.36 351.881 91.28C353.361 90.2 354.621 88.74 355.661 86.9L357.761 88.58C356.481 90.98 354.861 92.78 352.901 93.98C350.981 95.14 348.781 95.72 346.301 95.72ZM350.501 66.32C347.781 66.32 345.601 67.24 343.961 69.08C342.361 70.88 341.241 73.34 340.601 76.46L340.121 78.86C343.361 78.74 346.021 78.52 348.101 78.2C350.221 77.84 351.881 77.36 353.081 76.76C354.321 76.16 355.161 75.44 355.601 74.6C356.081 73.72 356.321 72.72 356.321 71.6C356.321 69.72 355.781 68.38 354.701 67.58C353.661 66.74 352.261 66.32 350.501 66.32ZM383.203 95C381.603 95 380.803 94.28 380.803 92.84C380.803 92.6 380.823 92.32 380.863 92C380.903 91.64 380.963 91.32 381.043 91.04L381.583 88.34H381.163C379.163 93.26 376.123 95.72 372.043 95.72C369.403 95.72 367.343 94.8 365.863 92.96C364.383 91.08 363.643 88.52 363.643 85.28C363.643 84.32 363.703 83.14 363.823 81.74C363.983 80.3 364.203 78.9 364.483 77.54C365.403 73.06 366.943 69.62 369.103 67.22C371.303 64.78 374.003 63.56 377.203 63.56C379.323 63.56 381.063 64.08 382.423 65.12C383.783 66.12 384.623 67.58 384.943 69.5H385.363L386.383 64.28H389.623L384.043 92.24H388.123L387.583 95H383.203ZM373.063 92.9C374.183 92.9 375.183 92.68 376.062 92.24C376.943 91.8 377.843 91.08 378.763 90.08C379.763 89 380.623 87.74 381.343 86.3C382.063 84.86 382.563 83.44 382.843 82.04L384.403 74.18C384.603 73.14 384.583 72.16 384.343 71.24C384.103 70.28 383.683 69.44 383.083 68.72C382.483 68 381.723 67.44 380.803 67.04C379.883 66.6 378.863 66.38 377.743 66.38C375.343 66.38 373.323 67.2 371.683 68.84C370.043 70.44 368.903 72.8 368.263 75.92L367.123 81.62C367.043 82.1 366.963 82.64 366.883 83.24C366.843 83.84 366.823 84.42 366.823 84.98C366.823 87.58 367.343 89.56 368.383 90.92C369.463 92.24 371.023 92.9 373.063 92.9ZM402.977 64.28L399.137 83.54C398.977 84.3 398.857 85.06 398.777 85.82C398.697 86.58 398.657 87.2 398.657 87.68C398.657 89.48 399.057 90.8 399.857 91.64C400.697 92.48 401.877 92.9 403.397 92.9C404.637 92.9 405.777 92.64 406.817 92.12C407.857 91.56 408.777 90.78 409.577 89.78C410.377 88.78 411.057 87.62 411.617 86.3C412.217 84.98 412.657 83.66 412.937 82.34L416.537 64.28H419.777L414.197 92.24H418.277L417.737 95H413.357C411.757 95 410.957 94.28 410.957 92.84C410.957 92.6 410.977 92.32 411.017 92C411.057 91.64 411.117 91.32 411.197 91.04L411.617 88.88H411.197C409.357 93.44 406.337 95.72 402.137 95.72C399.937 95.72 398.257 95.04 397.097 93.68C395.977 92.32 395.417 90.42 395.417 87.98C395.417 86.7 395.577 85.2 395.897 83.48L399.737 64.28H402.977ZM428.112 95C426.512 95 425.712 94.28 425.712 92.84C425.712 92.6 425.732 92.32 425.772 92C425.812 91.64 425.872 91.32 425.952 91.04L430.752 67.04H426.312L426.852 64.28H429.612C430.412 64.28 430.932 64.14 431.172 63.86C431.452 63.58 431.692 63.04 431.892 62.24L433.212 55.7H436.272L434.532 64.28H440.592L440.052 67.04H433.992L428.952 92.24H434.712L434.172 95H428.112ZM450.922 55.82C449.602 55.82 448.942 55.32 448.942 54.32C448.942 54 449.042 53.48 449.242 52.76C449.362 52.32 449.622 51.94 450.022 51.62C450.462 51.26 451.022 51.08 451.702 51.08C453.022 51.08 453.682 51.58 453.682 52.58C453.682 52.9 453.582 53.42 453.382 54.14C453.262 54.58 452.982 54.98 452.542 55.34C452.142 55.66 451.602 55.82 450.922 55.82ZM444.382 95C442.782 95 441.982 94.28 441.982 92.84C441.982 92.6 442.002 92.32 442.042 92C442.082 91.64 442.142 91.32 442.222 91.04L447.562 64.28H450.802L445.222 92.24H449.302L448.762 95H444.382ZM458.202 103.52C457.922 104.84 457.502 105.74 456.942 106.22C456.382 106.74 455.482 107 454.242 107H449.562L450.102 104.24H454.842L462.282 67.04H457.542L458.082 64.28H462.822L464.862 54.08C465.142 52.76 465.562 51.86 466.122 51.38C466.682 50.86 467.582 50.6 468.822 50.6H474.402L473.862 53.36H468.282L466.062 64.28H471.642L471.102 67.04H465.522L458.202 103.52ZM481.083 64.28L477.243 83.54C477.083 84.3 476.963 85.06 476.883 85.82C476.803 86.58 476.763 87.2 476.763 87.68C476.763 89.48 477.163 90.8 477.963 91.64C478.803 92.48 479.983 92.9 481.503 92.9C482.743 92.9 483.883 92.64 484.923 92.12C485.963 91.56 486.883 90.78 487.683 89.78C488.483 88.78 489.163 87.62 489.723 86.3C490.323 84.98 490.763 83.66 491.043 82.34L494.643 64.28H497.883L492.303 92.24H496.383L495.843 95H491.463C489.863 95 489.063 94.28 489.063 92.84C489.063 92.6 489.083 92.32 489.123 92C489.163 91.64 489.223 91.32 489.303 91.04L489.723 88.88H489.303C487.463 93.44 484.443 95.72 480.243 95.72C478.043 95.72 476.363 95.04 475.203 93.68C474.083 92.32 473.523 90.42 473.523 87.98C473.523 86.7 473.683 85.2 474.003 83.48L477.843 64.28H481.083ZM505.437 95C503.837 95 503.037 94.28 503.037 92.84C503.037 92.6 503.057 92.32 503.097 92C503.137 91.64 503.197 91.32 503.277 91.04L511.377 50.6H514.617L506.277 92.24H510.537L509.997 95H505.437ZM520.318 89.96C521.038 89.96 521.598 90.12 521.998 90.44C522.398 90.76 522.598 91.18 522.598 91.7C522.598 91.98 522.538 92.36 522.418 92.84C522.338 93.28 522.258 93.66 522.178 93.98C521.978 94.66 521.698 95.4 521.338 96.2C520.978 97.04 520.538 97.86 520.018 98.66C519.538 99.5 518.958 100.32 518.278 101.12C517.638 101.92 516.938 102.64 516.178 103.28H513.418C514.858 101.92 516.018 100.58 516.898 99.26C517.778 97.98 518.478 96.74 518.998 95.54C517.678 95.42 517.018 94.84 517.018 93.8C517.018 93.28 517.118 92.68 517.318 92C517.518 91.4 517.818 90.92 518.218 90.56C518.658 90.16 519.358 89.96 520.318 89.96ZM553.096 50.6H556.336L552.256 70.94H552.676C554.676 66.02 557.716 63.56 561.796 63.56C564.436 63.56 566.496 64.5 567.976 66.38C569.456 68.22 570.196 70.76 570.196 74C570.196 74.96 570.116 76.16 569.956 77.6C569.836 79 569.636 80.38 569.356 81.74C568.436 86.22 566.876 89.68 564.676 92.12C562.516 94.52 559.836 95.72 556.636 95.72C554.516 95.72 552.776 95.22 551.416 94.22C550.056 93.18 549.216 91.7 548.896 89.78H548.476L547.456 95H544.216L553.096 50.6ZM556.096 92.9C558.496 92.9 560.516 92.1 562.156 90.5C563.796 88.86 564.936 86.48 565.576 83.36L566.716 77.66C566.796 77.18 566.856 76.64 566.896 76.04C566.976 75.44 567.016 74.86 567.016 74.3C567.016 71.7 566.476 69.74 565.396 68.42C564.356 67.06 562.816 66.38 560.776 66.38C559.656 66.38 558.656 66.6 557.776 67.04C556.896 67.48 555.996 68.2 555.076 69.2C554.076 70.32 553.216 71.6 552.496 73.04C551.776 74.44 551.276 75.84 550.996 77.24L549.436 85.1C549.236 86.14 549.256 87.14 549.496 88.1C549.736 89.02 550.156 89.84 550.756 90.56C551.356 91.28 552.116 91.86 553.036 92.3C553.956 92.7 554.976 92.9 556.096 92.9ZM585.422 95.72C582.022 95.72 579.482 94.74 577.802 92.78C576.162 90.82 575.342 88.06 575.342 84.5C575.342 83.46 575.402 82.34 575.522 81.14C575.682 79.9 575.862 78.74 576.062 77.66C576.942 73.26 578.582 69.82 580.982 67.34C583.422 64.82 586.402 63.56 589.922 63.56C592.442 63.56 594.522 64.22 596.162 65.54C597.842 66.86 598.682 68.82 598.682 71.42C598.682 72.9 598.342 74.24 597.662 75.44C597.022 76.6 595.922 77.62 594.362 78.5C592.802 79.34 590.742 80.02 588.182 80.54C585.662 81.02 582.542 81.3 578.822 81.38C578.702 81.98 578.622 82.56 578.582 83.12C578.542 83.64 578.522 84.08 578.522 84.44C578.522 87.36 579.102 89.5 580.262 90.86C581.462 92.22 583.242 92.9 585.602 92.9C587.722 92.9 589.522 92.36 591.002 91.28C592.482 90.2 593.742 88.74 594.782 86.9L596.882 88.58C595.602 90.98 593.982 92.78 592.022 93.98C590.102 95.14 587.902 95.72 585.422 95.72ZM589.622 66.32C586.902 66.32 584.722 67.24 583.082 69.08C581.482 70.88 580.362 73.34 579.722 76.46L579.242 78.86C582.482 78.74 585.142 78.52 587.222 78.2C589.342 77.84 591.002 77.36 592.202 76.76C593.442 76.16 594.282 75.44 594.722 74.6C595.202 73.72 595.442 72.72 595.442 71.6C595.442 69.72 594.902 68.38 593.822 67.58C592.782 66.74 591.382 66.32 589.622 66.32ZM637.498 64.28H640.798L620.278 104.42C619.758 105.42 619.178 106.1 618.538 106.46C617.938 106.82 617.138 107 616.138 107H611.578L612.118 104.24H616.978L621.298 95.78L617.218 64.28H620.338L622.318 80.48L623.338 92.12H623.758L629.398 80.3L637.498 64.28ZM650.628 95.72C647.428 95.72 645.008 94.74 643.368 92.78C641.728 90.82 640.908 88.22 640.908 84.98C640.908 83.82 640.968 82.62 641.088 81.38C641.248 80.1 641.448 78.86 641.688 77.66C642.088 75.54 642.688 73.62 643.488 71.9C644.288 70.14 645.248 68.66 646.368 67.46C647.528 66.22 648.848 65.26 650.328 64.58C651.808 63.9 653.448 63.56 655.248 63.56C658.448 63.56 660.868 64.54 662.508 66.5C664.148 68.46 664.968 71.06 664.968 74.3C664.968 75.46 664.888 76.68 664.728 77.96C664.608 79.2 664.428 80.42 664.188 81.62C663.748 83.74 663.128 85.68 662.328 87.44C661.568 89.16 660.608 90.64 659.448 91.88C658.328 93.08 657.028 94.02 655.548 94.7C654.068 95.38 652.428 95.72 650.628 95.72ZM650.808 92.9C653.408 92.9 655.488 92.06 657.048 90.38C658.648 88.7 659.768 86.24 660.408 83L661.428 77.9C661.668 76.7 661.788 75.52 661.788 74.36C661.788 69.04 659.548 66.38 655.068 66.38C652.468 66.38 650.368 67.22 648.768 68.9C647.208 70.58 646.108 73.04 645.468 76.28L644.448 81.38C644.208 82.58 644.088 83.76 644.088 84.92C644.088 90.24 646.328 92.9 650.808 92.9ZM678.426 64.28L674.586 83.54C674.426 84.3 674.306 85.06 674.226 85.82C674.146 86.58 674.106 87.2 674.106 87.68C674.106 89.48 674.506 90.8 675.306 91.64C676.146 92.48 677.326 92.9 678.846 92.9C680.086 92.9 681.226 92.64 682.266 92.12C683.306 91.56 684.226 90.78 685.026 89.78C685.826 88.78 686.506 87.62 687.066 86.3C687.666 84.98 688.106 83.66 688.386 82.34L691.986 64.28H695.226L689.646 92.24H693.726L693.186 95H688.806C687.206 95 686.406 94.28 686.406 92.84C686.406 92.6 686.426 92.32 686.466 92C686.506 91.64 686.566 91.32 686.646 91.04L687.066 88.88H686.646C684.806 93.44 681.786 95.72 677.586 95.72C675.386 95.72 673.706 95.04 672.546 93.68C671.426 92.32 670.866 90.42 670.866 87.98C670.866 86.7 671.026 85.2 671.346 83.48L675.186 64.28H678.426Z" fill="black"/>
<path d="M727.108 86V70.76H728.128V73.1H728.338C728.598 72.28 729.098 71.63 729.838 71.15C730.598 70.65 731.528 70.4 732.628 70.4C734.048 70.4 735.138 70.84 735.898 71.72C736.678 72.6 737.068 73.88 737.068 75.56V86H736.048V75.59C736.048 74.23 735.738 73.18 735.118 72.44C734.498 71.68 733.588 71.3 732.388 71.3C731.808 71.3 731.258 71.39 730.738 71.57C730.238 71.75 729.788 72.02 729.388 72.38C729.008 72.72 728.698 73.14 728.458 73.64C728.238 74.12 728.128 74.67 728.128 75.29V86H727.108ZM742.525 63.8H743.545V73.1H743.755C744.015 72.28 744.515 71.63 745.255 71.15C746.015 70.65 746.945 70.4 748.045 70.4C749.465 70.4 750.555 70.84 751.315 71.72C752.095 72.6 752.485 73.88 752.485 75.56V86H751.465V75.59C751.465 74.23 751.155 73.18 750.535 72.44C749.915 71.68 749.005 71.3 747.805 71.3C747.225 71.3 746.675 71.39 746.155 71.57C745.655 71.75 745.205 72.02 744.805 72.38C744.425 72.72 744.115 73.14 743.875 73.64C743.655 74.12 743.545 74.67 743.545 75.29V86H742.525V63.8ZM766.703 86C766.003 86 765.653 85.65 765.653 84.95V83.63H765.443C765.163 84.47 764.663 85.14 763.943 85.64C763.223 86.12 762.313 86.36 761.213 86.36C759.793 86.36 758.693 86.01 757.913 85.31C757.133 84.59 756.743 83.49 756.743 82.01C756.743 80.55 757.173 79.46 758.033 78.74C758.913 78 760.153 77.63 761.753 77.63H765.653V75.29C765.653 73.85 765.333 72.83 764.693 72.23C764.073 71.61 763.143 71.3 761.903 71.3C760.923 71.3 760.113 71.51 759.473 71.93C758.833 72.33 758.333 73.02 757.973 74L757.253 73.52C757.633 72.54 758.193 71.78 758.933 71.24C759.693 70.68 760.693 70.4 761.933 70.4C763.513 70.4 764.693 70.79 765.473 71.57C766.273 72.35 766.673 73.55 766.673 75.17V85.1H768.773V86H766.703ZM761.333 85.46C761.933 85.46 762.493 85.37 763.013 85.19C763.533 85.01 763.983 84.76 764.363 84.44C764.763 84.1 765.073 83.69 765.293 83.21C765.533 82.71 765.653 82.14 765.653 81.5V78.47H761.753C760.593 78.47 759.653 78.73 758.933 79.25C758.213 79.75 757.853 80.47 757.853 81.41V82.52C757.853 83.46 758.173 84.19 758.813 84.71C759.473 85.21 760.313 85.46 761.333 85.46ZM762.593 63.56L765.953 67.61L765.323 68.09L761.993 64.34L758.663 68.09L758.033 67.61L761.393 63.56H762.593ZM761.423 90.23C761.103 90.23 760.873 90.16 760.733 90.02C760.613 89.88 760.553 89.7 760.553 89.48V89.18C760.553 88.96 760.613 88.78 760.733 88.64C760.873 88.5 761.103 88.43 761.423 88.43C761.743 88.43 761.963 88.5 762.083 88.64C762.223 88.78 762.293 88.96 762.293 89.18V89.48C762.293 89.7 762.223 89.88 762.083 90.02C761.963 90.16 761.743 90.23 761.423 90.23ZM772.393 86V70.76H773.413V73.1H773.623C773.883 72.28 774.383 71.63 775.123 71.15C775.883 70.65 776.813 70.4 777.913 70.4C779.333 70.4 780.423 70.84 781.183 71.72C781.963 72.6 782.353 73.88 782.353 75.56V86H781.333V75.59C781.333 74.23 781.023 73.18 780.403 72.44C779.783 71.68 778.873 71.3 777.673 71.3C777.093 71.3 776.543 71.39 776.023 71.57C775.523 71.75 775.073 72.02 774.673 72.38C774.293 72.72 773.983 73.14 773.743 73.64C773.523 74.12 773.413 74.67 773.413 75.29V86H772.393ZM794.468 86V70.76H795.488V73.1H795.698C795.958 72.28 796.458 71.63 797.198 71.15C797.958 70.65 798.888 70.4 799.988 70.4C801.408 70.4 802.498 70.84 803.258 71.72C804.038 72.6 804.428 73.88 804.428 75.56V86H803.408V75.59C803.408 74.23 803.098 73.18 802.478 72.44C801.858 71.68 800.948 71.3 799.748 71.3C799.168 71.3 798.618 71.39 798.098 71.57C797.598 71.75 797.148 72.02 796.748 72.38C796.368 72.72 796.058 73.14 795.818 73.64C795.598 74.12 795.488 74.67 795.488 75.29V86H794.468ZM820.865 87.89C820.865 89.49 820.335 90.63 819.275 91.31C818.215 92.01 816.565 92.36 814.325 92.36C812.205 92.36 810.695 92.02 809.795 91.34C808.915 90.66 808.475 89.69 808.475 88.43C808.475 87.47 808.705 86.73 809.165 86.21C809.625 85.69 810.245 85.32 811.025 85.1V84.89C810.565 84.73 810.215 84.47 809.975 84.11C809.755 83.75 809.645 83.31 809.645 82.79C809.645 82.15 809.855 81.61 810.275 81.17C810.715 80.73 811.275 80.48 811.955 80.42V80.18C811.155 79.82 810.535 79.26 810.095 78.5C809.675 77.72 809.465 76.73 809.465 75.53C809.465 73.83 809.895 72.55 810.755 71.69C811.635 70.83 812.825 70.4 814.325 70.4C815.445 70.4 816.405 70.66 817.205 71.18V69.92C817.205 69.58 817.265 69.35 817.385 69.23C817.525 69.09 817.765 69.02 818.105 69.02H820.775V69.92H817.895V71.72C818.735 72.6 819.155 73.87 819.155 75.53C819.155 77.23 818.725 78.51 817.865 79.37C817.005 80.23 815.825 80.66 814.325 80.66C813.765 80.66 813.245 80.6 812.765 80.48C811.305 80.88 810.575 81.59 810.575 82.61C810.575 83.15 810.735 83.56 811.055 83.84C811.395 84.12 811.965 84.26 812.765 84.26H816.365C817.985 84.26 819.135 84.57 819.815 85.19C820.515 85.81 820.865 86.71 820.865 87.89ZM819.875 87.92C819.875 87.02 819.615 86.34 819.095 85.88C818.595 85.42 817.665 85.19 816.305 85.19H811.925C811.185 85.43 810.585 85.77 810.125 86.21C809.685 86.67 809.465 87.37 809.465 88.31C809.465 89.33 809.805 90.11 810.485 90.65C811.185 91.21 812.195 91.49 813.515 91.49H815.105C816.665 91.49 817.845 91.2 818.645 90.62C819.465 90.06 819.875 89.16 819.875 87.92ZM814.325 79.79C815.545 79.79 816.475 79.46 817.115 78.8C817.755 78.14 818.075 77.27 818.075 76.19V74.87C818.075 73.79 817.755 72.92 817.115 72.26C816.475 71.6 815.545 71.27 814.325 71.27C813.105 71.27 812.165 71.6 811.505 72.26C810.865 72.92 810.545 73.79 810.545 74.87V76.19C810.545 77.27 810.865 78.14 811.505 78.8C812.165 79.46 813.105 79.79 814.325 79.79ZM833.183 86C832.483 86 832.133 85.65 832.133 84.95V83.63H831.923C831.643 84.47 831.143 85.14 830.423 85.64C829.703 86.12 828.793 86.36 827.693 86.36C826.273 86.36 825.173 86.01 824.393 85.31C823.613 84.59 823.223 83.49 823.223 82.01C823.223 80.55 823.653 79.46 824.513 78.74C825.393 78 826.633 77.63 828.233 77.63H832.133V75.29C832.133 73.85 831.813 72.83 831.173 72.23C830.553 71.61 829.623 71.3 828.383 71.3C827.403 71.3 826.593 71.51 825.953 71.93C825.313 72.33 824.813 73.02 824.453 74L823.733 73.52C824.113 72.54 824.673 71.78 825.413 71.24C826.173 70.68 827.173 70.4 828.413 70.4C829.993 70.4 831.173 70.79 831.953 71.57C832.753 72.35 833.153 73.55 833.153 75.17V85.1H835.253V86H833.183ZM827.813 85.46C828.413 85.46 828.973 85.37 829.493 85.19C830.013 85.01 830.463 84.76 830.843 84.44C831.243 84.1 831.553 83.69 831.773 83.21C832.013 82.71 832.133 82.14 832.133 81.5V78.47H828.233C827.073 78.47 826.133 78.73 825.413 79.25C824.693 79.75 824.333 80.47 824.333 81.41V82.52C824.333 83.46 824.653 84.19 825.293 84.71C825.953 85.21 826.793 85.46 827.813 85.46ZM846.887 70.76H847.907L841.337 91.07C841.217 91.43 841.077 91.67 840.917 91.79C840.757 91.93 840.487 92 840.107 92H837.767V91.1H840.377L841.787 86.63L836.657 70.76H837.677L840.647 79.97L842.207 85.1H842.357L843.917 79.97L846.887 70.76ZM866.923 83.66C866.643 84.46 866.133 85.11 865.393 85.61C864.653 86.11 863.733 86.36 862.633 86.36C861.193 86.36 860.093 85.93 859.333 85.07C858.573 84.19 858.193 82.9 858.193 81.2V70.76H859.213V81.17C859.213 82.51 859.523 83.56 860.143 84.32C860.763 85.06 861.673 85.43 862.873 85.43C863.433 85.43 863.973 85.34 864.493 85.16C865.013 84.98 865.463 84.72 865.843 84.38C866.243 84.04 866.553 83.63 866.773 83.15C867.013 82.65 867.133 82.09 867.133 81.47V70.76H869.383V67.4H870.313V70.55C870.313 70.95 870.243 71.21 870.103 71.33C869.983 71.45 869.723 71.51 869.323 71.51H868.153V86H867.133V83.66H866.923ZM882.609 83.66H882.399C882.119 84.46 881.609 85.11 880.869 85.61C880.129 86.11 879.209 86.36 878.109 86.36C876.669 86.36 875.569 85.93 874.809 85.07C874.049 84.19 873.669 82.9 873.669 81.2V70.76H874.689V81.17C874.689 82.51 874.999 83.56 875.619 84.32C876.239 85.06 877.149 85.43 878.349 85.43C878.909 85.43 879.449 85.34 879.969 85.16C880.489 84.98 880.939 84.72 881.319 84.38C881.719 84.04 882.029 83.63 882.249 83.15C882.489 82.65 882.609 82.09 882.609 81.47V70.76H883.629V86H882.609V83.66ZM904.714 83.63H904.504C904.224 84.47 903.714 85.14 902.974 85.64C902.254 86.12 901.354 86.36 900.274 86.36C898.454 86.36 897.054 85.71 896.074 84.41C895.094 83.11 894.604 81.1 894.604 78.38C894.604 75.66 895.094 73.65 896.074 72.35C897.054 71.05 898.454 70.4 900.274 70.4C901.354 70.4 902.254 70.64 902.974 71.12C903.714 71.58 904.224 72.24 904.504 73.1H904.714V66.8H900.304V65.96H904.714V63.8H905.734V65.96H907.654V66.8H905.734V86H904.714V83.63ZM900.454 85.43C901.054 85.43 901.614 85.34 902.134 85.16C902.654 84.98 903.104 84.72 903.484 84.38C903.864 84.04 904.164 83.63 904.384 83.15C904.604 82.65 904.714 82.1 904.714 81.5V75.2C904.714 74.6 904.604 74.06 904.384 73.58C904.164 73.08 903.864 72.67 903.484 72.35C903.104 72.01 902.654 71.75 902.134 71.57C901.614 71.39 901.054 71.3 900.454 71.3C898.914 71.3 897.734 71.83 896.914 72.89C896.114 73.93 895.714 75.38 895.714 77.24V79.52C895.714 81.38 896.114 82.83 896.914 83.87C897.734 84.91 898.914 85.43 900.454 85.43ZM920.185 86C919.485 86 919.135 85.65 919.135 84.95V83.63H918.925C918.645 84.47 918.145 85.14 917.425 85.64C916.705 86.12 915.795 86.36 914.695 86.36C913.275 86.36 912.175 86.01 911.395 85.31C910.615 84.59 910.225 83.49 910.225 82.01C910.225 80.55 910.655 79.46 911.515 78.74C912.395 78 913.635 77.63 915.235 77.63H919.135V75.29C919.135 73.85 918.815 72.83 918.175 72.23C917.555 71.61 916.625 71.3 915.385 71.3C914.405 71.3 913.595 71.51 912.955 71.93C912.315 72.33 911.815 73.02 911.455 74L910.735 73.52C911.115 72.54 911.675 71.78 912.415 71.24C913.175 70.68 914.175 70.4 915.415 70.4C916.995 70.4 918.175 70.79 918.955 71.57C919.755 72.35 920.155 73.55 920.155 75.17V85.1H922.255V86H920.185ZM914.815 85.46C915.415 85.46 915.975 85.37 916.495 85.19C917.015 85.01 917.465 84.76 917.845 84.44C918.245 84.1 918.555 83.69 918.775 83.21C919.015 82.71 919.135 82.14 919.135 81.5V78.47H915.235C914.075 78.47 913.135 78.73 912.415 79.25C911.695 79.75 911.335 80.47 911.335 81.41V82.52C911.335 83.46 911.655 84.19 912.295 84.71C912.955 85.21 913.795 85.46 914.815 85.46ZM917.425 67.28C917.085 67.28 916.765 67.22 916.465 67.1C916.165 66.96 915.785 66.73 915.325 66.41C914.905 66.13 914.555 65.93 914.275 65.81C913.995 65.69 913.735 65.63 913.495 65.63C913.175 65.63 912.875 65.71 912.595 65.87C912.335 66.03 912.065 66.27 911.785 66.59L911.275 66.02C911.935 65.18 912.685 64.76 913.525 64.76C913.865 64.76 914.185 64.83 914.485 64.97C914.785 65.09 915.165 65.31 915.625 65.63C916.045 65.91 916.395 66.11 916.675 66.23C916.955 66.35 917.215 66.41 917.455 66.41C917.775 66.41 918.065 66.33 918.325 66.17C918.605 66.01 918.885 65.77 919.165 65.45L919.675 65.99C919.015 66.85 918.265 67.28 917.425 67.28ZM926.386 66.05C926.086 66.05 925.866 65.98 925.726 65.84C925.606 65.7 925.546 65.52 925.546 65.3V64.97C925.546 64.75 925.606 64.57 925.726 64.43C925.846 64.29 926.056 64.22 926.356 64.22C926.656 64.22 926.866 64.29 926.986 64.43C927.126 64.57 927.196 64.75 927.196 64.97V65.3C927.196 65.52 927.136 65.7 927.016 65.84C926.896 65.98 926.686 66.05 926.386 66.05ZM925.876 70.76H926.896V86H925.876V70.76Z" fill="black"/>
<path d="M1314.06 95H1307.83L1297.11 75.704H1296.44L1285.65 95H1279.76L1293.56 71.215L1280.23 48.234H1286.46L1296.64 66.592H1297.31L1307.83 48.234H1313.73L1300.26 71.014L1314.06 95ZM1331.61 95.804C1329.6 95.804 1327.73 95.469 1325.99 94.799C1324.24 94.129 1322.75 93.057 1321.5 91.583C1320.25 90.109 1319.26 88.233 1318.55 85.955C1317.83 83.677 1317.48 80.93 1317.48 77.714C1317.48 74.498 1317.83 71.751 1318.55 69.473C1319.26 67.195 1320.25 65.319 1321.5 63.845C1322.75 62.371 1324.24 61.299 1325.99 60.629C1327.73 59.959 1329.6 59.624 1331.61 59.624C1333.62 59.624 1335.45 59.959 1337.11 60.629C1338.8 61.299 1340.23 62.371 1341.4 63.845C1342.56 65.319 1343.45 67.195 1344.08 69.473C1344.75 71.751 1345.08 74.498 1345.08 77.714V78.987H1322.9V81.198C1322.9 84.5927 1323.66 87.1387 1325.18 88.836C1326.74 90.4887 1328.89 91.315 1331.61 91.315C1333.94 91.315 1335.83 90.8237 1337.31 89.841C1338.78 88.8137 1339.94 87.295 1340.79 85.285L1344.28 87.831C1343.2 90.1983 1341.62 92.119 1339.52 93.593C1337.46 95.067 1334.83 95.804 1331.61 95.804ZM1331.61 63.912C1328.84 63.912 1326.7 64.783 1325.18 66.525C1323.66 68.267 1322.9 70.8353 1322.9 74.23V75.101H1339.65V74.23C1339.65 67.3513 1336.97 63.912 1331.61 63.912ZM1352.99 95V60.428H1358.09V66.056H1358.76C1359.43 63.912 1360.41 62.304 1361.7 61.232C1363 60.16 1364.83 59.624 1367.2 59.624C1369.34 59.624 1371.15 60.16 1372.62 61.232C1374.14 62.2593 1375.28 63.8673 1376.04 66.056H1376.71C1377.43 63.912 1378.54 62.304 1380.06 61.232C1381.58 60.16 1383.59 59.624 1386.09 59.624C1389.04 59.624 1391.41 60.6737 1393.19 62.773C1394.98 64.8723 1395.87 68.1107 1395.87 72.488V95H1390.78V72.823C1390.78 70.0537 1390.22 67.932 1389.11 66.458C1388.03 64.984 1386.36 64.247 1384.08 64.247C1382.07 64.247 1380.37 64.8723 1378.99 66.123C1377.65 67.3737 1376.98 69.138 1376.98 71.416V95H1371.89V72.823C1371.89 70.0537 1371.33 67.932 1370.21 66.458C1369.14 64.984 1367.47 64.247 1365.19 64.247C1363.18 64.247 1361.48 64.8723 1360.1 66.123C1358.76 67.3737 1358.09 69.138 1358.09 71.416V95H1352.99ZM1429.91 64.649L1425.82 55.001H1425.15L1425.62 64.649V95H1420.4V48.234H1426.96L1442.51 78.585L1446.59 88.233H1447.26L1446.8 78.585V48.234H1452.02V95H1445.46L1429.91 64.649ZM1488.99 98.886C1488.99 102.549 1487.74 105.184 1485.23 106.792C1482.78 108.4 1478.96 109.204 1473.78 109.204C1468.82 109.204 1465.27 108.467 1463.12 106.993C1461.03 105.519 1459.98 103.397 1459.98 100.628C1459.98 98.752 1460.44 97.278 1461.38 96.206C1462.32 95.134 1463.53 94.464 1465 94.196V93.258C1464.11 92.7667 1463.39 92.1413 1462.86 91.382C1462.37 90.578 1462.12 89.64 1462.12 88.568C1462.12 87.1387 1462.52 85.9103 1463.33 84.883C1464.17 83.8557 1465.54 83.2303 1467.41 83.007V82.27C1465.63 81.3767 1464.22 80.059 1463.19 78.317C1462.21 76.5303 1461.72 74.297 1461.72 71.617C1461.72 67.6863 1462.79 64.716 1464.93 62.706C1467.08 60.696 1469.96 59.691 1473.58 59.691C1475.72 59.691 1477.66 60.0707 1479.41 60.83V59.624C1479.41 58.3287 1479.7 57.3907 1480.28 56.81C1480.86 56.2293 1481.8 55.939 1483.09 55.939H1487.71V60.428H1481.75V62.304C1482.91 63.3313 1483.81 64.6043 1484.43 66.123C1485.1 67.6417 1485.44 69.473 1485.44 71.617C1485.44 75.5477 1484.36 78.518 1482.22 80.528C1480.08 82.538 1477.19 83.543 1473.58 83.543C1472.5 83.543 1471.41 83.4313 1470.29 83.208C1469.04 83.4313 1468.08 83.945 1467.41 84.749C1466.79 85.5083 1466.47 86.29 1466.47 87.094C1466.47 87.9873 1466.79 88.6573 1467.41 89.104C1468.04 89.5507 1469.07 89.774 1470.49 89.774H1478.07C1481.95 89.774 1484.74 90.5557 1486.44 92.119C1488.14 93.6823 1488.99 95.938 1488.99 98.886ZM1484.23 99.221C1484.23 97.7023 1483.76 96.541 1482.82 95.737C1481.88 94.9777 1480.28 94.598 1478 94.598H1467.48C1466.45 95.0893 1465.72 95.7147 1465.27 96.474C1464.87 97.2333 1464.67 98.1937 1464.67 99.355C1464.67 101.097 1465.2 102.459 1466.27 103.442C1467.35 104.469 1469.07 104.983 1471.43 104.983H1475.85C1478.62 104.983 1480.7 104.514 1482.09 103.576C1483.51 102.683 1484.23 101.231 1484.23 99.221ZM1473.58 79.389C1475.68 79.389 1477.31 78.853 1478.47 77.781C1479.63 76.709 1480.21 75.0563 1480.21 72.823V70.344C1480.21 68.1107 1479.63 66.458 1478.47 65.386C1477.31 64.314 1475.68 63.778 1473.58 63.778C1471.48 63.778 1469.85 64.314 1468.69 65.386C1467.52 66.458 1466.94 68.1107 1466.94 70.344V72.823C1466.94 75.0563 1467.52 76.709 1468.69 77.781C1469.85 78.853 1471.48 79.389 1473.58 79.389ZM1516.36 95C1513.05 95 1511.4 93.3473 1511.4 90.042V89.372H1510.73C1510.15 91.4713 1509.08 93.0793 1507.52 94.196C1506 95.268 1504.17 95.804 1502.02 95.804C1498.67 95.804 1496.17 94.9553 1494.52 93.258C1492.87 91.5607 1492.04 89.0593 1492.04 85.754C1492.04 82.538 1493.09 79.992 1495.19 78.116C1497.33 76.24 1500.66 75.302 1505.17 75.302H1511.4V71.483C1511.4 68.937 1510.82 67.061 1509.66 65.855C1508.54 64.649 1506.76 64.046 1504.3 64.046C1502.29 64.046 1500.66 64.4927 1499.41 65.386C1498.2 66.2347 1497.15 67.4853 1496.26 69.138L1493.25 66.324C1494.14 64.448 1495.57 62.8847 1497.53 61.634C1499.5 60.3387 1501.82 59.691 1504.5 59.691C1508.43 59.691 1511.4 60.6513 1513.41 62.572C1515.47 64.448 1516.49 67.2397 1516.49 70.947V90.511H1519.98V95H1516.36ZM1503.3 91.382C1504.46 91.382 1505.53 91.181 1506.51 90.779C1507.54 90.377 1508.41 89.8633 1509.12 89.238C1509.84 88.568 1510.4 87.831 1510.8 87.027C1511.2 86.1783 1511.4 85.3073 1511.4 84.414V79.188H1505.04C1502.36 79.188 1500.39 79.6347 1499.14 80.528C1497.94 81.4213 1497.33 82.7167 1497.33 84.414V86.29C1497.33 88.032 1497.87 89.3273 1498.94 90.176C1500.01 90.98 1501.46 91.382 1503.3 91.382ZM1545.27 60.428H1550.23L1536.56 103.844C1536.3 104.737 1536.01 105.474 1535.69 106.055C1535.38 106.68 1534.98 107.149 1534.49 107.462C1534.04 107.819 1533.48 108.065 1532.81 108.199C1532.19 108.333 1531.38 108.4 1530.4 108.4H1526.65V103.911H1531.94L1533.95 96.876L1522.49 60.428H1527.59L1532.88 77.848L1536.09 90.511H1536.76L1539.98 77.848L1545.27 60.428Z" fill="black"/>
<path d="M1278.35 103.375H1551.64V107.395H1278.35V103.375Z" fill="black"/>
<defs>
<linearGradient id="paint0_linear_428_23" x1="0" y1="81" x2="1676" y2="81" gradientUnits="userSpaceOnUse">
<stop stop-color="#9DA6DB" stop-opacity="0.58"/>
<stop offset="0.79" stop-color="#C9C9C9"/>
</linearGradient>
</defs>
</svg>
