<svg width="1676" height="162" viewBox="0 0 1676 162" fill="none" xmlns="http://www.w3.org/2000/svg">
<rect width="1676" height="162" fill="url(#paint0_linear_428_6)"/>
<path d="M51.0889 93.3H50.5989C49.8056 95.96 48.3356 98.06 46.1889 99.6C44.0422 101.093 41.1022 101.84 37.3689 101.84C34.7556 101.84 32.3756 101.42 30.2289 100.58C28.1289 99.6933 26.3089 98.27 24.7689 96.31C23.2756 94.3033 22.1089 91.69 21.2689 88.47C20.4756 85.25 20.0789 81.2833 20.0789 76.57C20.0789 71.8567 20.4756 67.89 21.2689 64.67C22.1089 61.45 23.2989 58.86 24.8389 56.9C26.3789 54.8933 28.2222 53.47 30.3689 52.63C32.5156 51.7433 34.9189 51.3 37.5789 51.3C41.6389 51.3 44.8589 52.1867 47.2389 53.96C49.6656 55.6867 51.4856 58.09 52.6989 61.17L50.5989 62.29C49.5256 59.49 47.9389 57.3433 45.8389 55.85C43.7389 54.31 40.9856 53.54 37.5789 53.54C32.9589 53.54 29.3422 55.15 26.7289 58.37C24.1156 61.5433 22.8089 66.49 22.8089 73.21V79.93C22.8089 86.65 24.1156 91.62 26.7289 94.84C29.3422 98.0133 32.9589 99.6 37.5789 99.6C41.8256 99.6 45.1156 98.3867 47.4489 95.96C49.7822 93.5333 50.9489 90.1733 50.9489 85.88V79.58H40.3089V77.34H53.4689V101H51.0889V93.3ZM65.8201 54.45C65.1201 54.45 64.6067 54.2867 64.2801 53.96C64.0001 53.6333 63.8601 53.2133 63.8601 52.7V51.93C63.8601 51.4167 64.0001 50.9967 64.2801 50.67C64.5601 50.3433 65.0501 50.18 65.7501 50.18C66.4501 50.18 66.9401 50.3433 67.2201 50.67C67.5467 50.9967 67.7101 51.4167 67.7101 51.93V52.7C67.7101 53.2133 67.5701 53.6333 67.2901 53.96C67.0101 54.2867 66.5201 54.45 65.8201 54.45ZM64.6301 65.44H67.0101V101H64.6301V65.44ZM100.041 101C98.4074 101 97.5908 100.183 97.5908 98.55V95.47H97.1008C96.4474 97.43 95.2808 98.9933 93.6008 100.16C91.9208 101.28 89.7974 101.84 87.2308 101.84C83.9174 101.84 81.3508 101.023 79.5308 99.39C77.7108 97.71 76.8008 95.1433 76.8008 91.69C76.8008 88.2833 77.8041 85.74 79.8108 84.06C81.8641 82.3333 84.7574 81.47 88.4908 81.47H97.5908V76.01C97.5908 72.65 96.8441 70.27 95.3508 68.87C93.9041 67.4233 91.7341 66.7 88.8408 66.7C86.5541 66.7 84.6641 67.19 83.1708 68.17C81.6774 69.1033 80.5108 70.7133 79.6708 73L77.9908 71.88C78.8774 69.5933 80.1841 67.82 81.9108 66.56C83.6841 65.2533 86.0174 64.6 88.9108 64.6C92.5974 64.6 95.3508 65.51 97.1708 67.33C99.0374 69.15 99.9708 71.95 99.9708 75.73V98.9H104.871V101H100.041ZM87.5108 99.74C88.9108 99.74 90.2174 99.53 91.4308 99.11C92.6441 98.69 93.6941 98.1067 94.5808 97.36C95.5141 96.5667 96.2374 95.61 96.7508 94.49C97.3108 93.3233 97.5908 91.9933 97.5908 90.5V83.43H88.4908C85.7841 83.43 83.5908 84.0367 81.9108 85.25C80.2308 86.4167 79.3908 88.0967 79.3908 90.29V92.88C79.3908 95.0733 80.1374 96.7767 81.6308 97.99C83.1708 99.1567 85.1308 99.74 87.5108 99.74ZM84.0808 48.92H92.4108C93.8574 48.92 94.5808 49.5267 94.5808 50.74C94.5808 51.2067 94.4641 51.72 94.2308 52.28C93.9974 52.7933 93.5308 53.6333 92.8308 54.8L89.6108 60.19L88.0708 59.35L92.6208 50.95H84.0808V48.92ZM112.618 101V65.44H114.998V70.9H115.488C116.095 68.9867 117.215 67.47 118.848 66.35C120.528 65.1833 122.628 64.6 125.148 64.6C127.622 64.6 129.675 65.2067 131.308 66.42C132.988 67.5867 134.155 69.29 134.808 71.53H135.298C135.905 69.2433 137.142 67.5167 139.008 66.35C140.875 65.1833 143.068 64.6 145.588 64.6C148.808 64.6 151.328 65.6267 153.148 67.68C154.968 69.7333 155.878 72.72 155.878 76.64V101H153.498V76.71C153.498 73.5367 152.752 71.0867 151.258 69.36C149.812 67.5867 147.735 66.7 145.028 66.7C143.722 66.7 142.485 66.91 141.318 67.33C140.152 67.75 139.125 68.38 138.238 69.22C137.398 70.0133 136.722 70.9933 136.208 72.16C135.695 73.28 135.438 74.5633 135.438 76.01V101H133.058V76.71C133.058 73.49 132.312 71.0167 130.818 69.29C129.372 67.5633 127.295 66.7 124.588 66.7C123.282 66.7 122.045 66.91 120.878 67.33C119.712 67.75 118.685 68.38 117.798 69.22C116.958 70.0133 116.282 70.9933 115.768 72.16C115.255 73.28 114.998 74.5633 114.998 76.01V101H112.618ZM182.125 101V97.57H195.005V55.08H194.655L183.035 65.37L180.795 62.85L192.835 52.14H198.925V97.57H210.895V101H182.125ZM233.158 101.84C230.684 101.84 228.514 101.397 226.648 100.51C224.781 99.6233 223.218 98.2 221.958 96.24C220.744 94.2333 219.811 91.62 219.158 88.4C218.551 85.18 218.248 81.2367 218.248 76.57C218.248 71.9033 218.551 67.9833 219.158 64.81C219.811 61.59 220.744 58.9767 221.958 56.97C223.218 54.9633 224.781 53.5167 226.648 52.63C228.514 51.7433 230.684 51.3 233.158 51.3C235.631 51.3 237.801 51.7433 239.668 52.63C241.534 53.5167 243.074 54.9633 244.288 56.97C245.548 58.9767 246.481 61.59 247.088 64.81C247.741 67.9833 248.068 71.9033 248.068 76.57C248.068 81.2367 247.741 85.18 247.088 88.4C246.481 91.62 245.548 94.2333 244.288 96.24C243.074 98.2 241.534 99.6233 239.668 100.51C237.801 101.397 235.631 101.84 233.158 101.84ZM233.158 98.34C236.844 98.34 239.551 96.9633 241.278 94.21C243.004 91.41 243.868 87.3033 243.868 81.89V71.25C243.868 65.8367 243.004 61.7533 241.278 59C239.551 56.2 236.844 54.8 233.158 54.8C229.471 54.8 226.764 56.2 225.038 59C223.311 61.7533 222.448 65.8367 222.448 71.25V81.89C222.448 87.3033 223.311 91.41 225.038 94.21C226.764 96.9633 229.471 98.34 233.158 98.34ZM270.961 101.84C268.487 101.84 266.317 101.397 264.451 100.51C262.584 99.6233 261.021 98.2 259.761 96.24C258.547 94.2333 257.614 91.62 256.961 88.4C256.354 85.18 256.051 81.2367 256.051 76.57C256.051 71.9033 256.354 67.9833 256.961 64.81C257.614 61.59 258.547 58.9767 259.761 56.97C261.021 54.9633 262.584 53.5167 264.451 52.63C266.317 51.7433 268.487 51.3 270.961 51.3C273.434 51.3 275.604 51.7433 277.471 52.63C279.337 53.5167 280.877 54.9633 282.091 56.97C283.351 58.9767 284.284 61.59 284.891 64.81C285.544 67.9833 285.871 71.9033 285.871 76.57C285.871 81.2367 285.544 85.18 284.891 88.4C284.284 91.62 283.351 94.2333 282.091 96.24C280.877 98.2 279.337 99.6233 277.471 100.51C275.604 101.397 273.434 101.84 270.961 101.84ZM270.961 98.34C274.647 98.34 277.354 96.9633 279.081 94.21C280.807 91.41 281.671 87.3033 281.671 81.89V71.25C281.671 65.8367 280.807 61.7533 279.081 59C277.354 56.2 274.647 54.8 270.961 54.8C267.274 54.8 264.567 56.2 262.841 59C261.114 61.7533 260.251 65.8367 260.251 71.25V81.89C260.251 87.3033 261.114 91.41 262.841 94.21C264.567 96.9633 267.274 98.34 270.961 98.34ZM301.483 101L332.003 52.14H335.713L305.193 101H301.483ZM303.793 78.74C300.713 78.74 298.333 77.6667 296.653 75.52C294.973 73.3733 294.133 69.8733 294.133 65.02C294.133 60.1667 294.973 56.6667 296.653 54.52C298.333 52.3733 300.713 51.3 303.793 51.3C306.873 51.3 309.253 52.3733 310.933 54.52C312.613 56.6667 313.453 60.1667 313.453 65.02C313.453 69.8733 312.613 73.3733 310.933 75.52C309.253 77.6667 306.873 78.74 303.793 78.74ZM303.793 76.15C305.8 76.15 307.317 75.45 308.343 74.05C309.417 72.65 309.953 70.41 309.953 67.33V62.71C309.953 59.63 309.417 57.39 308.343 55.99C307.317 54.59 305.8 53.89 303.793 53.89C301.787 53.89 300.247 54.59 299.173 55.99C298.147 57.39 297.633 59.63 297.633 62.71V67.33C297.633 70.41 298.147 72.65 299.173 74.05C300.247 75.45 301.787 76.15 303.793 76.15ZM333.403 101.84C330.323 101.84 327.943 100.767 326.263 98.62C324.583 96.4733 323.743 92.9733 323.743 88.12C323.743 83.2667 324.583 79.7667 326.263 77.62C327.943 75.4733 330.323 74.4 333.403 74.4C336.483 74.4 338.863 75.4733 340.543 77.62C342.223 79.7667 343.063 83.2667 343.063 88.12C343.063 92.9733 342.223 96.4733 340.543 98.62C338.863 100.767 336.483 101.84 333.403 101.84ZM333.403 99.25C335.41 99.25 336.927 98.55 337.953 97.15C339.027 95.75 339.563 93.51 339.563 90.43V85.81C339.563 82.73 339.027 80.49 337.953 79.09C336.927 77.69 335.41 76.99 333.403 76.99C331.397 76.99 329.857 77.69 328.783 79.09C327.757 80.49 327.243 82.73 327.243 85.81V90.43C327.243 93.51 327.757 95.75 328.783 97.15C329.857 98.55 331.397 99.25 333.403 99.25ZM368.488 65.44H370.868V70.9H371.358C372.011 68.94 373.178 67.4 374.858 66.28C376.584 65.16 378.708 64.6 381.228 64.6C385.474 64.6 388.741 66.1167 391.028 69.15C393.314 72.1833 394.458 76.8733 394.458 83.22C394.458 89.5667 393.314 94.2567 391.028 97.29C388.741 100.323 385.451 101.84 381.158 101.84C378.638 101.84 376.538 101.28 374.858 100.16C373.178 99.04 372.011 97.5 371.358 95.54H370.868V115H368.488V65.44ZM380.808 99.74C384.401 99.74 387.131 98.5267 388.998 96.1C390.911 93.6733 391.868 90.2667 391.868 85.88V80.56C391.868 76.22 390.911 72.8367 388.998 70.41C387.131 67.9367 384.401 66.7 380.808 66.7C379.408 66.7 378.101 66.91 376.888 67.33C375.674 67.75 374.624 68.3567 373.738 69.15C372.851 69.9433 372.151 70.9 371.638 72.02C371.124 73.14 370.868 74.4233 370.868 75.87V90.5C370.868 91.9467 371.124 93.2533 371.638 94.42C372.151 95.54 372.851 96.4967 373.738 97.29C374.624 98.0833 375.674 98.69 376.888 99.11C378.101 99.53 379.408 99.74 380.808 99.74ZM404.376 49.2H406.756V70.9H407.246C407.853 68.9867 409.02 67.47 410.746 66.35C412.52 65.1833 414.69 64.6 417.256 64.6C420.57 64.6 423.113 65.6267 424.886 67.68C426.706 69.7333 427.616 72.72 427.616 76.64V101H425.236V76.71C425.236 73.5367 424.513 71.0867 423.066 69.36C421.62 67.5867 419.496 66.7 416.696 66.7C415.343 66.7 414.06 66.91 412.846 67.33C411.68 67.75 410.63 68.38 409.696 69.22C408.81 70.0133 408.086 70.9933 407.526 72.16C407.013 73.28 406.756 74.5633 406.756 76.01V101H404.376V49.2ZM439.65 101V65.44H442.03V101H439.65ZM440.21 59.91L438.6 59L445.18 47.94L447.35 49.2L440.21 59.91ZM476.104 101L464.624 65.44H467.004L473.934 86.93L477.574 98.9H477.924L481.564 86.93L488.494 65.44H490.874L479.394 101H476.104ZM518.4 101C516.767 101 515.95 100.183 515.95 98.55V95.47H515.46C514.807 97.43 513.64 98.9933 511.96 100.16C510.28 101.28 508.157 101.84 505.59 101.84C502.277 101.84 499.71 101.023 497.89 99.39C496.07 97.71 495.16 95.1433 495.16 91.69C495.16 88.2833 496.163 85.74 498.17 84.06C500.223 82.3333 503.117 81.47 506.85 81.47H515.95V76.01C515.95 72.65 515.203 70.27 513.71 68.87C512.263 67.4233 510.093 66.7 507.2 66.7C504.913 66.7 503.023 67.19 501.53 68.17C500.037 69.1033 498.87 70.7133 498.03 73L496.35 71.88C497.237 69.5933 498.543 67.82 500.27 66.56C502.043 65.2533 504.377 64.6 507.27 64.6C510.957 64.6 513.71 65.51 515.53 67.33C517.397 69.15 518.33 71.95 518.33 75.73V98.9H523.23V101H518.4ZM505.87 99.74C507.27 99.74 508.577 99.53 509.79 99.11C511.003 98.69 512.053 98.1067 512.94 97.36C513.873 96.5667 514.597 95.61 515.11 94.49C515.67 93.3233 515.95 91.9933 515.95 90.5V83.43H506.85C504.143 83.43 501.95 84.0367 500.27 85.25C498.59 86.4167 497.75 88.0967 497.75 90.29V92.88C497.75 95.0733 498.497 96.7767 499.99 97.99C501.53 99.1567 503.49 99.74 505.87 99.74ZM508.81 48.64L516.65 58.09L515.18 59.21L507.41 50.46L499.64 59.21L498.17 58.09L506.01 48.64H508.81ZM506.08 110.87C505.333 110.87 504.797 110.707 504.47 110.38C504.19 110.053 504.05 109.633 504.05 109.12V108.42C504.05 107.907 504.19 107.487 504.47 107.16C504.797 106.833 505.333 106.67 506.08 106.67C506.827 106.67 507.34 106.833 507.62 107.16C507.947 107.487 508.11 107.907 508.11 108.42V109.12C508.11 109.633 507.947 110.053 507.62 110.38C507.34 110.707 506.827 110.87 506.08 110.87ZM530.978 101V65.44H533.358V70.9H533.848C534.454 68.9867 535.621 67.47 537.348 66.35C539.121 65.1833 541.291 64.6 543.858 64.6C547.171 64.6 549.714 65.6267 551.488 67.68C553.308 69.7333 554.218 72.72 554.218 76.64V101H551.838V76.71C551.838 73.5367 551.114 71.0867 549.668 69.36C548.221 67.5867 546.098 66.7 543.298 66.7C541.944 66.7 540.661 66.91 539.448 67.33C538.281 67.75 537.231 68.38 536.298 69.22C535.411 70.0133 534.688 70.9933 534.128 72.16C533.614 73.28 533.358 74.5633 533.358 76.01V101H530.978ZM591.865 101.84C587.525 101.84 584.188 100.37 581.855 97.43C579.522 94.49 578.355 89.7533 578.355 83.22C578.355 76.6867 579.522 71.95 581.855 69.01C584.188 66.07 587.525 64.6 591.865 64.6C594.665 64.6 596.975 65.23 598.795 66.49C600.615 67.7033 601.992 69.43 602.925 71.67L600.965 72.72C600.032 70.62 598.865 69.1033 597.465 68.17C596.065 67.19 594.198 66.7 591.865 66.7C588.272 66.7 585.542 67.9133 583.675 70.34C581.855 72.7667 580.945 76.1733 580.945 80.56V85.88C580.945 90.2667 581.855 93.6733 583.675 96.1C585.542 98.5267 588.272 99.74 591.865 99.74C594.338 99.74 596.345 99.2267 597.885 98.2C599.425 97.1733 600.662 95.6567 601.595 93.65L603.415 94.84C602.342 96.9867 600.872 98.69 599.005 99.95C597.185 101.21 594.805 101.84 591.865 101.84ZM612.12 49.2H614.5V70.9H614.99C615.597 68.9867 616.764 67.47 618.49 66.35C620.264 65.1833 622.434 64.6 625 64.6C628.314 64.6 630.857 65.6267 632.63 67.68C634.45 69.7333 635.36 72.72 635.36 76.64V101H632.98V76.71C632.98 73.5367 632.257 71.0867 630.81 69.36C629.364 67.5867 627.24 66.7 624.44 66.7C623.087 66.7 621.804 66.91 620.59 67.33C619.424 67.75 618.374 68.38 617.44 69.22C616.554 70.0133 615.83 70.9933 615.27 72.16C614.757 73.28 614.5 74.5633 614.5 76.01V101H612.12V49.2ZM668.184 95.54H667.694C667.04 97.4067 665.85 98.9233 664.124 100.09C662.397 101.257 660.25 101.84 657.684 101.84C654.324 101.84 651.757 100.837 649.984 98.83C648.21 96.7767 647.324 93.7667 647.324 89.8V65.44H649.704V89.73C649.704 92.8567 650.427 95.3067 651.874 97.08C653.32 98.8067 655.444 99.67 658.244 99.67C659.55 99.67 660.81 99.46 662.024 99.04C663.237 98.62 664.287 98.0133 665.174 97.22C666.107 96.4267 666.83 95.47 667.344 94.35C667.904 93.1833 668.184 91.8767 668.184 90.43V65.44H670.564V101H668.184V95.54ZM701.707 65.44H704.087L688.757 112.83C688.477 113.67 688.151 114.23 687.777 114.51C687.404 114.837 686.774 115 685.887 115H680.427V112.9H686.517L689.807 102.47L677.837 65.44H680.217L687.147 86.93L690.787 98.9H691.137L694.777 86.93L701.707 65.44ZM722.161 101.84C720.061 101.84 718.148 101.49 716.421 100.79C714.741 100.043 713.318 98.9233 712.151 97.43C710.985 95.89 710.075 93.9533 709.421 91.62C708.815 89.2867 708.511 86.4867 708.511 83.22C708.511 76.7333 709.725 72.02 712.151 69.08C714.578 66.0933 717.915 64.6 722.161 64.6C726.408 64.6 729.651 66.07 731.891 69.01C734.131 71.95 735.251 76.4533 735.251 82.52V83.36H711.101V85.88C711.101 90.2667 712.058 93.6733 713.971 96.1C715.885 98.5267 718.615 99.74 722.161 99.74C725.101 99.74 727.411 99.0633 729.091 97.71C730.771 96.3567 732.055 94.35 732.941 91.69L734.761 92.74C733.781 95.68 732.288 97.9433 730.281 99.53C728.275 101.07 725.568 101.84 722.161 101.84ZM722.161 66.63C718.615 66.63 715.885 67.8667 713.971 70.34C712.058 72.7667 711.101 76.1733 711.101 80.56V81.47H732.661V80.56C732.661 76.1733 731.775 72.7667 730.001 70.34C728.275 67.8667 725.661 66.63 722.161 66.63ZM724.821 41.15H733.011C734.458 41.15 735.181 41.7567 735.181 42.97C735.181 43.4367 735.041 43.95 734.761 44.51C734.528 45.0233 734.085 45.84 733.431 46.96L730.211 52.42L728.741 51.58L733.221 43.11H724.821V41.15ZM723.421 49.41L731.261 58.72L729.861 59.77L722.021 51.23L714.181 59.77L712.781 58.72L720.621 49.41H723.421ZM745.148 101V65.44H747.528V70.9H748.018C748.624 68.9867 749.791 67.47 751.518 66.35C753.291 65.1833 755.461 64.6 758.028 64.6C761.341 64.6 763.884 65.6267 765.658 67.68C767.478 69.7333 768.388 72.72 768.388 76.64V101H766.008V76.71C766.008 73.5367 765.284 71.0867 763.838 69.36C762.391 67.5867 760.268 66.7 757.468 66.7C756.114 66.7 754.831 66.91 753.618 67.33C752.451 67.75 751.401 68.38 750.468 69.22C749.581 70.0133 748.858 70.9933 748.298 72.16C747.784 73.28 747.528 74.5633 747.528 76.01V101H745.148Z" fill="black"/>
<path d="M784.402 73.3C782.852 73.3 781.66 72.775 780.827 71.725C779.993 70.675 779.577 68.9833 779.577 66.65C779.577 64.3167 779.993 62.625 780.827 61.575C781.66 60.525 782.852 60 784.402 60C785.402 60 786.227 60.225 786.877 60.675C787.527 61.1083 788.018 61.725 788.352 62.525L787.652 62.9C787.318 62.15 786.902 61.6083 786.402 61.275C785.902 60.925 785.235 60.75 784.402 60.75C783.118 60.75 782.143 61.1833 781.477 62.05C780.827 62.9167 780.502 64.1333 780.502 65.7V67.6C780.502 69.1667 780.827 70.3833 781.477 71.25C782.143 72.1167 783.118 72.55 784.402 72.55C785.285 72.55 786.002 72.3667 786.552 72C787.102 71.6333 787.543 71.0917 787.877 70.375L788.527 70.8C788.143 71.5667 787.618 72.175 786.952 72.625C786.302 73.075 785.452 73.3 784.402 73.3ZM791.886 54.5H792.736V62.25H792.911C793.127 61.5667 793.544 61.025 794.161 60.625C794.794 60.2083 795.569 60 796.486 60C797.669 60 798.577 60.3667 799.211 61.1C799.861 61.8333 800.186 62.9 800.186 64.3V73H799.336V64.325C799.336 63.1917 799.077 62.3167 798.561 61.7C798.044 61.0667 797.286 60.75 796.286 60.75C795.802 60.75 795.344 60.825 794.911 60.975C794.494 61.125 794.119 61.35 793.786 61.65C793.469 61.9333 793.211 62.2833 793.011 62.7C792.827 63.1 792.736 63.5583 792.736 64.075V73H791.886V54.5ZM808.633 73.3C807.883 73.3 807.2 73.175 806.583 72.925C805.983 72.6583 805.475 72.2583 805.058 71.725C804.642 71.175 804.317 70.4833 804.083 69.65C803.867 68.8167 803.758 67.8167 803.758 66.65C803.758 64.3333 804.192 62.65 805.058 61.6C805.925 60.5333 807.117 60 808.633 60C810.15 60 811.342 60.5333 812.208 61.6C813.075 62.65 813.508 64.3333 813.508 66.65C813.508 67.8167 813.392 68.8167 813.158 69.65C812.942 70.4833 812.625 71.175 812.208 71.725C811.792 72.2583 811.275 72.6583 810.658 72.925C810.058 73.175 809.383 73.3 808.633 73.3ZM808.633 72.55C809.9 72.55 810.875 72.1167 811.558 71.25C812.242 70.3833 812.583 69.1667 812.583 67.6V65.7C812.583 64.1333 812.242 62.9167 811.558 62.05C810.875 61.1833 809.9 60.75 808.633 60.75C807.367 60.75 806.392 61.1833 805.708 62.05C805.025 62.9167 804.683 64.1333 804.683 65.7V67.6C804.683 69.1667 805.025 70.3833 805.708 71.25C806.392 72.1167 807.367 72.55 808.633 72.55ZM830.286 71.025H830.111C829.878 71.725 829.453 72.2833 828.836 72.7C828.236 73.1 827.486 73.3 826.586 73.3C825.069 73.3 823.903 72.7583 823.086 71.675C822.269 70.5917 821.861 68.9167 821.861 66.65C821.861 64.3833 822.269 62.7083 823.086 61.625C823.903 60.5417 825.069 60 826.586 60C827.486 60 828.236 60.2 828.836 60.6C829.453 60.9833 829.878 61.5333 830.111 62.25H830.286V57H826.611V56.3H830.286V54.5H831.136V56.3H832.736V57H831.136V73H830.286V71.025ZM826.736 72.525C827.236 72.525 827.703 72.45 828.136 72.3C828.569 72.15 828.944 71.9333 829.261 71.65C829.578 71.3667 829.828 71.025 830.011 70.625C830.194 70.2083 830.286 69.75 830.286 69.25V64C830.286 63.5 830.194 63.05 830.011 62.65C829.828 62.2333 829.578 61.8917 829.261 61.625C828.944 61.3417 828.569 61.125 828.136 60.975C827.703 60.825 827.236 60.75 826.736 60.75C825.453 60.75 824.469 61.1917 823.786 62.075C823.119 62.9417 822.786 64.15 822.786 65.7V67.6C822.786 69.15 823.119 70.3583 823.786 71.225C824.469 72.0917 825.453 72.525 826.736 72.525ZM844.529 57.5V60.125C844.529 60.4583 844.479 60.675 844.379 60.775C844.279 60.875 844.062 60.925 843.729 60.925H842.154V61.05C843.004 61.3167 843.629 61.925 844.029 62.875C844.446 63.825 844.654 65.0833 844.654 66.65C844.654 67.8167 844.537 68.8167 844.304 69.65C844.087 70.4833 843.771 71.175 843.354 71.725C842.937 72.2583 842.421 72.6583 841.804 72.925C841.204 73.175 840.529 73.3 839.779 73.3C839.029 73.3 838.346 73.175 837.729 72.925C837.129 72.6583 836.621 72.2583 836.204 71.725C835.787 71.175 835.462 70.4833 835.229 69.65C835.012 68.8167 834.904 67.8167 834.904 66.65C834.904 64.3333 835.337 62.65 836.204 61.6C837.071 60.5333 838.262 60 839.779 60C840.446 60 841.046 60.1 841.579 60.3H843.754V57.5H844.529ZM839.779 72.55C841.046 72.55 842.021 72.1167 842.704 71.25C843.387 70.3833 843.729 69.1667 843.729 67.6V65.7C843.729 64.1333 843.387 62.9167 842.704 62.05C842.021 61.1833 841.046 60.75 839.779 60.75C838.512 60.75 837.537 61.1833 836.854 62.05C836.171 62.9167 835.829 64.1333 835.829 65.7V67.6C835.829 69.1667 836.171 70.3833 836.854 71.25C837.537 72.1167 838.512 72.55 839.779 72.55ZM848.434 73V60.3H849.284V62.25H849.459C849.675 61.5667 850.092 61.025 850.709 60.625C851.342 60.2083 852.117 60 853.034 60C854.217 60 855.125 60.3667 855.759 61.1C856.409 61.8333 856.734 62.9 856.734 64.3V73H855.884V64.325C855.884 63.1917 855.625 62.3167 855.109 61.7C854.592 61.0667 853.834 60.75 852.834 60.75C852.35 60.75 851.892 60.825 851.459 60.975C851.042 61.125 850.667 61.35 850.334 61.65C850.017 61.9333 849.759 62.2833 849.559 62.7C849.375 63.1 849.284 63.5583 849.284 64.075V73H848.434ZM866.829 54.5H867.679V62.25H867.854C868.071 61.5667 868.487 61.025 869.104 60.625C869.737 60.2083 870.512 60 871.429 60C872.612 60 873.521 60.3667 874.154 61.1C874.804 61.8333 875.129 62.9 875.129 64.3V73H874.279V64.325C874.279 63.1917 874.021 62.3167 873.504 61.7C872.987 61.0667 872.229 60.75 871.229 60.75C870.746 60.75 870.287 60.825 869.854 60.975C869.437 61.125 869.062 61.35 868.729 61.65C868.412 61.9333 868.154 62.2833 867.954 62.7C867.771 63.1 867.679 63.5583 867.679 64.075V73H866.829V54.5ZM886.977 73C886.393 73 886.102 72.7083 886.102 72.125V71.025H885.927C885.693 71.725 885.277 72.2833 884.677 72.7C884.077 73.1 883.318 73.3 882.402 73.3C881.218 73.3 880.302 73.0083 879.652 72.425C879.002 71.825 878.677 70.9083 878.677 69.675C878.677 68.4583 879.035 67.55 879.752 66.95C880.485 66.3333 881.518 66.025 882.852 66.025H886.102V64.075C886.102 62.875 885.835 62.025 885.302 61.525C884.785 61.0083 884.01 60.75 882.977 60.75C882.16 60.75 881.485 60.925 880.952 61.275C880.418 61.6083 880.002 62.1833 879.702 63L879.102 62.6C879.418 61.7833 879.885 61.15 880.502 60.7C881.135 60.2333 881.968 60 883.002 60C884.318 60 885.302 60.325 885.952 60.975C886.618 61.625 886.952 62.625 886.952 63.975V72.25H888.702V73H886.977ZM882.502 72.55C883.002 72.55 883.468 72.475 883.902 72.325C884.335 72.175 884.71 71.9667 885.027 71.7C885.36 71.4167 885.618 71.075 885.802 70.675C886.002 70.2583 886.102 69.7833 886.102 69.25V66.725H882.852C881.885 66.725 881.102 66.9417 880.502 67.375C879.902 67.7917 879.602 68.3917 879.602 69.175V70.1C879.602 70.8833 879.868 71.4917 880.402 71.925C880.952 72.3417 881.652 72.55 882.502 72.55ZM880.727 54.5L881.502 54.05L883.852 58L883.277 58.325L880.727 54.5ZM891.719 73V60.3H892.569V62.25H892.744C892.96 61.5667 893.377 61.025 893.994 60.625C894.627 60.2083 895.402 60 896.319 60C897.502 60 898.41 60.3667 899.044 61.1C899.694 61.8333 900.019 62.9 900.019 64.3V73H899.169V64.325C899.169 63.1917 898.91 62.3167 898.394 61.7C897.877 61.0667 897.119 60.75 896.119 60.75C895.635 60.75 895.177 60.825 894.744 60.975C894.327 61.125 893.952 61.35 893.619 61.65C893.302 61.9333 893.044 62.2833 892.844 62.7C892.66 63.1 892.569 63.5583 892.569 64.075V73H891.719ZM913.716 74.575C913.716 75.9083 913.275 76.8583 912.391 77.425C911.508 78.0083 910.133 78.3 908.266 78.3C906.5 78.3 905.241 78.0167 904.491 77.45C903.758 76.8833 903.391 76.075 903.391 75.025C903.391 74.225 903.583 73.6083 903.966 73.175C904.35 72.7417 904.866 72.4333 905.516 72.25V72.075C905.133 71.9417 904.841 71.725 904.641 71.425C904.458 71.125 904.366 70.7583 904.366 70.325C904.366 69.7917 904.541 69.3417 904.891 68.975C905.258 68.6083 905.725 68.4 906.291 68.35V68.15C905.625 67.85 905.108 67.3833 904.741 66.75C904.391 66.1 904.216 65.275 904.216 64.275C904.216 62.8583 904.575 61.7917 905.291 61.075C906.025 60.3583 907.016 60 908.266 60C909.2 60 910 60.2167 910.666 60.65V59.6C910.666 59.3167 910.716 59.125 910.816 59.025C910.933 58.9083 911.133 58.85 911.416 58.85H913.641V59.6H911.241V61.1C911.941 61.8333 912.291 62.8917 912.291 64.275C912.291 65.6917 911.933 66.7583 911.216 67.475C910.5 68.1917 909.516 68.55 908.266 68.55C907.8 68.55 907.366 68.5 906.966 68.4C905.75 68.7333 905.141 69.325 905.141 70.175C905.141 70.625 905.275 70.9667 905.541 71.2C905.825 71.4333 906.3 71.55 906.966 71.55H909.966C911.316 71.55 912.275 71.8083 912.841 72.325C913.425 72.8417 913.716 73.5917 913.716 74.575ZM912.891 74.6C912.891 73.85 912.675 73.2833 912.241 72.9C911.825 72.5167 911.05 72.325 909.916 72.325H906.266C905.65 72.525 905.15 72.8083 904.766 73.175C904.4 73.5583 904.216 74.1417 904.216 74.925C904.216 75.775 904.5 76.425 905.066 76.875C905.65 77.3417 906.491 77.575 907.591 77.575H908.916C910.216 77.575 911.2 77.3333 911.866 76.85C912.55 76.3833 912.891 75.6333 912.891 74.6ZM908.266 67.825C909.283 67.825 910.058 67.55 910.591 67C911.125 66.45 911.391 65.725 911.391 64.825V63.725C911.391 62.825 911.125 62.1 910.591 61.55C910.058 61 909.283 60.725 908.266 60.725C907.25 60.725 906.466 61 905.916 61.55C905.383 62.1 905.116 62.825 905.116 63.725V64.825C905.116 65.725 905.383 66.45 905.916 67C906.466 67.55 907.25 67.825 908.266 67.825ZM923.704 73C923.354 73 923.104 72.925 922.954 72.775C922.804 72.625 922.729 72.375 922.729 72.025V61.05H920.654V60.3H922.129C922.379 60.3 922.546 60.2417 922.629 60.125C922.713 59.9917 922.754 59.8 922.754 59.55V56.7H923.579V60.3H926.154V61.05H923.579V72.25H926.029V73H923.704ZM936.956 71.05C936.723 71.7167 936.298 72.2583 935.681 72.675C935.064 73.0917 934.298 73.3 933.381 73.3C932.181 73.3 931.264 72.9417 930.631 72.225C929.998 71.4917 929.681 70.4167 929.681 69V60.3H930.531V68.975C930.531 70.0917 930.789 70.9667 931.306 71.6C931.823 72.2167 932.581 72.525 933.581 72.525C934.048 72.525 934.498 72.45 934.931 72.3C935.364 72.15 935.739 71.9333 936.056 71.65C936.389 71.3667 936.648 71.025 936.831 70.625C937.031 70.2083 937.131 69.7417 937.131 69.225V60.3H939.006V57.5H939.781V60.125C939.781 60.4583 939.723 60.675 939.606 60.775C939.506 60.875 939.289 60.925 938.956 60.925H937.981V73H937.131V71.05H936.956ZM931.531 54.5L932.306 54.05L934.656 58L934.081 58.325L931.531 54.5ZM952.075 63.45C953.192 63.45 954.084 63.15 954.75 62.55C955.434 61.9333 955.775 61.1083 955.775 60.075V59.375C955.775 58.325 955.45 57.5083 954.8 56.925C954.167 56.3417 953.334 56.05 952.3 56.05C951.284 56.05 950.492 56.2667 949.925 56.7C949.359 57.1167 948.909 57.7 948.575 58.45L947.9 58.025C948.234 57.2417 948.759 56.5833 949.475 56.05C950.192 55.5167 951.142 55.25 952.325 55.25C953.659 55.25 954.725 55.6083 955.525 56.325C956.325 57.0417 956.725 58.1333 956.725 59.6C956.725 60.8667 956.417 61.8417 955.8 62.525C955.2 63.1917 954.442 63.6 953.525 63.75V63.925C954.042 63.975 954.509 64.1 954.925 64.3C955.359 64.5 955.734 64.7833 956.05 65.15C956.367 65.5167 956.609 65.9667 956.775 66.5C956.959 67.0167 957.05 67.6333 957.05 68.35C957.05 70 956.617 71.2417 955.75 72.075C954.884 72.8917 953.692 73.3 952.175 73.3C950.975 73.3 949.992 73.0667 949.225 72.6C948.459 72.1333 947.817 71.4583 947.3 70.575L948 70.1C948.467 70.9 949.009 71.5 949.625 71.9C950.259 72.3 951.109 72.5 952.175 72.5C953.375 72.5 954.325 72.1667 955.025 71.5C955.742 70.8333 956.1 69.9083 956.1 68.725V68.025C956.1 66.825 955.742 65.9 955.025 65.25C954.325 64.5833 953.375 64.25 952.175 64.25H950.075V63.45H952.075ZM966.401 73.3C965.568 73.3 964.826 73.15 964.176 72.85C963.526 72.55 962.976 72.05 962.526 71.35C962.093 70.65 961.76 69.725 961.526 68.575C961.293 67.4083 961.176 65.975 961.176 64.275C961.176 62.575 961.293 61.15 961.526 60C961.76 58.8333 962.093 57.9 962.526 57.2C962.976 56.5 963.526 56 964.176 55.7C964.826 55.4 965.568 55.25 966.401 55.25C967.235 55.25 967.976 55.4 968.626 55.7C969.276 56 969.818 56.5 970.251 57.2C970.701 57.9 971.043 58.8333 971.276 60C971.51 61.15 971.626 62.575 971.626 64.275C971.626 65.975 971.51 67.4083 971.276 68.575C971.043 69.725 970.701 70.65 970.251 71.35C969.818 72.05 969.276 72.55 968.626 72.85C967.976 73.15 967.235 73.3 966.401 73.3ZM966.401 72.5C967.835 72.5 968.901 71.9417 969.601 70.825C970.301 69.7083 970.651 67.9917 970.651 65.675V62.875C970.651 60.5583 970.301 58.8417 969.601 57.725C968.901 56.6083 967.835 56.05 966.401 56.05C964.968 56.05 963.901 56.6083 963.201 57.725C962.501 58.8417 962.151 60.5583 962.151 62.875V65.675C962.151 67.9917 962.501 69.7083 963.201 70.825C963.901 71.9417 964.968 72.5 966.401 72.5ZM980.152 73.3C979.319 73.3 978.577 73.15 977.927 72.85C977.277 72.55 976.727 72.05 976.277 71.35C975.844 70.65 975.511 69.725 975.277 68.575C975.044 67.4083 974.927 65.975 974.927 64.275C974.927 62.575 975.044 61.15 975.277 60C975.511 58.8333 975.844 57.9 976.277 57.2C976.727 56.5 977.277 56 977.927 55.7C978.577 55.4 979.319 55.25 980.152 55.25C980.986 55.25 981.727 55.4 982.377 55.7C983.027 56 983.569 56.5 984.002 57.2C984.452 57.9 984.794 58.8333 985.027 60C985.261 61.15 985.377 62.575 985.377 64.275C985.377 65.975 985.261 67.4083 985.027 68.575C984.794 69.725 984.452 70.65 984.002 71.35C983.569 72.05 983.027 72.55 982.377 72.85C981.727 73.15 980.986 73.3 980.152 73.3ZM980.152 72.5C981.586 72.5 982.652 71.9417 983.352 70.825C984.052 69.7083 984.402 67.9917 984.402 65.675V62.875C984.402 60.5583 984.052 58.8417 983.352 57.725C982.652 56.6083 981.586 56.05 980.152 56.05C978.719 56.05 977.652 56.6083 976.952 57.725C976.252 58.8417 975.902 60.5583 975.902 62.875V65.675C975.902 67.9917 976.252 69.7083 976.952 70.825C977.652 71.9417 978.719 72.5 980.152 72.5ZM989.978 73.175C989.412 73.175 989.128 72.925 989.128 72.425V72.175C989.128 71.6583 989.403 71.4 989.953 71.4C990.52 71.4 990.803 71.65 990.803 72.15V72.4C990.803 72.9167 990.528 73.175 989.978 73.175ZM999.769 73.3C998.935 73.3 998.194 73.15 997.544 72.85C996.894 72.55 996.344 72.05 995.894 71.35C995.46 70.65 995.127 69.725 994.894 68.575C994.66 67.4083 994.544 65.975 994.544 64.275C994.544 62.575 994.66 61.15 994.894 60C995.127 58.8333 995.46 57.9 995.894 57.2C996.344 56.5 996.894 56 997.544 55.7C998.194 55.4 998.935 55.25 999.769 55.25C1000.6 55.25 1001.34 55.4 1001.99 55.7C1002.64 56 1003.19 56.5 1003.62 57.2C1004.07 57.9 1004.41 58.8333 1004.64 60C1004.88 61.15 1004.99 62.575 1004.99 64.275C1004.99 65.975 1004.88 67.4083 1004.64 68.575C1004.41 69.725 1004.07 70.65 1003.62 71.35C1003.19 72.05 1002.64 72.55 1001.99 72.85C1001.34 73.15 1000.6 73.3 999.769 73.3ZM999.769 72.5C1001.2 72.5 1002.27 71.9417 1002.97 70.825C1003.67 69.7083 1004.02 67.9917 1004.02 65.675V62.875C1004.02 60.5583 1003.67 58.8417 1002.97 57.725C1002.27 56.6083 1001.2 56.05 999.769 56.05C998.335 56.05 997.269 56.6083 996.569 57.725C995.869 58.8417 995.519 60.5583 995.519 62.875V65.675C995.519 67.9917 995.869 69.7083 996.569 70.825C997.269 71.9417 998.335 72.5 999.769 72.5ZM1013.52 73.3C1012.69 73.3 1011.94 73.15 1011.29 72.85C1010.64 72.55 1010.09 72.05 1009.64 71.35C1009.21 70.65 1008.88 69.725 1008.64 68.575C1008.41 67.4083 1008.29 65.975 1008.29 64.275C1008.29 62.575 1008.41 61.15 1008.64 60C1008.88 58.8333 1009.21 57.9 1009.64 57.2C1010.09 56.5 1010.64 56 1011.29 55.7C1011.94 55.4 1012.69 55.25 1013.52 55.25C1014.35 55.25 1015.09 55.4 1015.74 55.7C1016.39 56 1016.94 56.5 1017.37 57.2C1017.82 57.9 1018.16 58.8333 1018.39 60C1018.63 61.15 1018.74 62.575 1018.74 64.275C1018.74 65.975 1018.63 67.4083 1018.39 68.575C1018.16 69.725 1017.82 70.65 1017.37 71.35C1016.94 72.05 1016.39 72.55 1015.74 72.85C1015.09 73.15 1014.35 73.3 1013.52 73.3ZM1013.52 72.5C1014.95 72.5 1016.02 71.9417 1016.72 70.825C1017.42 69.7083 1017.77 67.9917 1017.77 65.675V62.875C1017.77 60.5583 1017.42 58.8417 1016.72 57.725C1016.02 56.6083 1014.95 56.05 1013.52 56.05C1012.09 56.05 1011.02 56.6083 1010.32 57.725C1009.62 58.8417 1009.27 60.5583 1009.27 62.875V65.675C1009.27 67.9917 1009.62 69.7083 1010.32 70.825C1011.02 71.9417 1012.09 72.5 1013.52 72.5ZM1027.27 73.3C1026.44 73.3 1025.7 73.15 1025.05 72.85C1024.4 72.55 1023.85 72.05 1023.4 71.35C1022.96 70.65 1022.63 69.725 1022.4 68.575C1022.16 67.4083 1022.05 65.975 1022.05 64.275C1022.05 62.575 1022.16 61.15 1022.4 60C1022.63 58.8333 1022.96 57.9 1023.4 57.2C1023.85 56.5 1024.4 56 1025.05 55.7C1025.7 55.4 1026.44 55.25 1027.27 55.25C1028.1 55.25 1028.85 55.4 1029.5 55.7C1030.15 56 1030.69 56.5 1031.12 57.2C1031.57 57.9 1031.91 58.8333 1032.15 60C1032.38 61.15 1032.5 62.575 1032.5 64.275C1032.5 65.975 1032.38 67.4083 1032.15 68.575C1031.91 69.725 1031.57 70.65 1031.12 71.35C1030.69 72.05 1030.15 72.55 1029.5 72.85C1028.85 73.15 1028.1 73.3 1027.27 73.3ZM1027.27 72.5C1028.7 72.5 1029.77 71.9417 1030.47 70.825C1031.17 69.7083 1031.52 67.9917 1031.52 65.675V62.875C1031.52 60.5583 1031.17 58.8417 1030.47 57.725C1029.77 56.6083 1028.7 56.05 1027.27 56.05C1025.84 56.05 1024.77 56.6083 1024.07 57.725C1023.37 58.8417 1023.02 60.5583 1023.02 62.875V65.675C1023.02 67.9917 1023.37 69.7083 1024.07 70.825C1024.77 71.9417 1025.84 72.5 1027.27 72.5ZM1040.15 73L1034.9 55.55H1035.85L1039.3 67.025L1040.75 72.2H1040.9L1042.35 67.025L1045.75 55.55H1046.7L1041.47 73H1040.15ZM1053.01 60.625L1050.93 56.525H1050.78L1050.81 60.625V73H1049.93V55.55H1051.26L1057.83 67.925L1059.96 72.025H1060.08L1060.06 67.925V55.55H1060.93V73H1059.61L1053.01 60.625ZM1065.88 64.25H1064.13V63.55H1065.88V55.55H1070.88C1072.9 55.55 1074.41 56.25 1075.43 57.65C1076.45 59.05 1076.96 61.2583 1076.96 64.275C1076.96 67.2917 1076.45 69.5 1075.43 70.9C1074.41 72.3 1072.9 73 1070.88 73H1065.88V64.25ZM1070.88 72.2C1071.75 72.2 1072.5 72.0417 1073.13 71.725C1073.78 71.4083 1074.31 70.9583 1074.73 70.375C1075.16 69.7917 1075.48 69.0917 1075.68 68.275C1075.9 67.4417 1076.01 66.5083 1076.01 65.475V63.075C1076.01 62.0417 1075.9 61.1167 1075.68 60.3C1075.48 59.4667 1075.16 58.7583 1074.73 58.175C1074.31 57.5917 1073.78 57.1417 1073.13 56.825C1072.5 56.5083 1071.75 56.35 1070.88 56.35H1066.78V63.55H1070.51V64.25H1066.78V72.2H1070.88ZM841.983 106C841.633 106 841.383 105.925 841.233 105.775C841.083 105.625 841.008 105.375 841.008 105.025V94.05H838.933V93.3H840.408C840.658 93.3 840.825 93.2417 840.908 93.125C840.992 92.9917 841.033 92.8 841.033 92.55V89.7H841.858V93.3H844.433V94.05H841.858V105.25H844.308V106H841.983ZM851.763 106.3C851.013 106.3 850.329 106.175 849.713 105.925C849.113 105.658 848.604 105.258 848.188 104.725C847.771 104.175 847.446 103.483 847.213 102.65C846.996 101.817 846.888 100.817 846.888 99.65C846.888 97.3333 847.321 95.65 848.188 94.6C849.054 93.5333 850.246 93 851.763 93C853.279 93 854.471 93.5333 855.338 94.6C856.204 95.65 856.638 97.3333 856.638 99.65C856.638 100.817 856.521 101.817 856.288 102.65C856.071 103.483 855.754 104.175 855.338 104.725C854.921 105.258 854.404 105.658 853.788 105.925C853.188 106.175 852.513 106.3 851.763 106.3ZM851.763 105.55C853.029 105.55 854.004 105.117 854.688 104.25C855.371 103.383 855.713 102.167 855.713 100.6V98.7C855.713 97.1333 855.371 95.9167 854.688 95.05C854.004 94.1833 853.029 93.75 851.763 93.75C850.496 93.75 849.521 94.1833 848.838 95.05C848.154 95.9167 847.813 97.1333 847.813 98.7V100.6C847.813 102.167 848.154 103.383 848.838 104.25C849.521 105.117 850.496 105.55 851.763 105.55ZM854.563 88.575L853.988 88.225L856.338 84.3L857.113 84.725L854.563 88.575ZM852.238 87.575L855.038 90.9L854.538 91.275L851.738 88.225L848.938 91.275L848.438 90.9L851.238 87.575H852.238ZM860.842 89.375C860.592 89.375 860.409 89.3167 860.292 89.2C860.192 89.0833 860.142 88.9333 860.142 88.75V88.475C860.142 88.2917 860.192 88.1417 860.292 88.025C860.392 87.9083 860.567 87.85 860.817 87.85C861.067 87.85 861.242 87.9083 861.342 88.025C861.459 88.1417 861.517 88.2917 861.517 88.475V88.75C861.517 88.9333 861.467 89.0833 861.367 89.2C861.267 89.3167 861.092 89.375 860.842 89.375ZM860.417 93.3H861.267V106H860.417V93.3ZM879.012 104.025H878.837C878.604 104.725 878.179 105.283 877.562 105.7C876.962 106.1 876.212 106.3 875.312 106.3C873.795 106.3 872.629 105.758 871.812 104.675C870.995 103.592 870.587 101.917 870.587 99.65C870.587 97.3833 870.995 95.7083 871.812 94.625C872.629 93.5417 873.795 93 875.312 93C876.212 93 876.962 93.2 877.562 93.6C878.179 93.9833 878.604 94.5333 878.837 95.25H879.012V90H875.337V89.3H879.012V87.5H879.862V89.3H881.462V90H879.862V106H879.012V104.025ZM875.462 105.525C875.962 105.525 876.429 105.45 876.862 105.3C877.295 105.15 877.67 104.933 877.987 104.65C878.304 104.367 878.554 104.025 878.737 103.625C878.92 103.208 879.012 102.75 879.012 102.25V97C879.012 96.5 878.92 96.05 878.737 95.65C878.554 95.2333 878.304 94.8917 877.987 94.625C877.67 94.3417 877.295 94.125 876.862 93.975C876.429 93.825 875.962 93.75 875.462 93.75C874.179 93.75 873.195 94.1917 872.512 95.075C871.845 95.9417 871.512 97.15 871.512 98.7V100.6C871.512 102.15 871.845 103.358 872.512 104.225C873.195 105.092 874.179 105.525 875.462 105.525ZM891.905 106C891.322 106 891.03 105.708 891.03 105.125V104.025H890.855C890.622 104.725 890.205 105.283 889.605 105.7C889.005 106.1 888.247 106.3 887.33 106.3C886.147 106.3 885.23 106.008 884.58 105.425C883.93 104.825 883.605 103.908 883.605 102.675C883.605 101.458 883.963 100.55 884.68 99.95C885.413 99.3333 886.447 99.025 887.78 99.025H891.03V97.075C891.03 95.875 890.763 95.025 890.23 94.525C889.713 94.0083 888.938 93.75 887.905 93.75C887.088 93.75 886.413 93.925 885.88 94.275C885.347 94.6083 884.93 95.1833 884.63 96L884.03 95.6C884.347 94.7833 884.813 94.15 885.43 93.7C886.063 93.2333 886.897 93 887.93 93C889.247 93 890.23 93.325 890.88 93.975C891.547 94.625 891.88 95.625 891.88 96.975V105.25H893.63V106H891.905ZM887.43 105.55C887.93 105.55 888.397 105.475 888.83 105.325C889.263 105.175 889.638 104.967 889.955 104.7C890.288 104.417 890.547 104.075 890.73 103.675C890.93 103.258 891.03 102.783 891.03 102.25V99.725H887.78C886.813 99.725 886.03 99.9417 885.43 100.375C884.83 100.792 884.53 101.392 884.53 102.175V103.1C884.53 103.883 884.797 104.492 885.33 104.925C885.88 105.342 886.58 105.55 887.43 105.55ZM910.895 89.35H903.695L903.195 97.425H903.37C904.003 96.175 905.186 95.55 906.92 95.55C908.386 95.55 909.511 95.9917 910.295 96.875C911.078 97.7417 911.47 99.0583 911.47 100.825C911.47 102.625 911.036 103.992 910.17 104.925C909.32 105.842 908.128 106.3 906.595 106.3C905.428 106.3 904.461 106.075 903.695 105.625C902.945 105.175 902.32 104.5 901.82 103.6L902.52 103.125C902.986 103.942 903.528 104.542 904.145 104.925C904.761 105.308 905.578 105.5 906.595 105.5C907.845 105.5 908.811 105.117 909.495 104.35C910.178 103.583 910.52 102.567 910.52 101.3V100.45C910.52 99.1667 910.195 98.1667 909.545 97.45C908.911 96.7167 907.986 96.35 906.77 96.35C905.87 96.35 905.161 96.4917 904.645 96.775C904.128 97.0583 903.653 97.4917 903.22 98.075L902.395 97.975L902.97 88.55H910.895V89.35ZM920.446 106.3C919.612 106.3 918.871 106.15 918.221 105.85C917.571 105.55 917.021 105.05 916.571 104.35C916.137 103.65 915.804 102.725 915.571 101.575C915.337 100.408 915.221 98.975 915.221 97.275C915.221 95.575 915.337 94.15 915.571 93C915.804 91.8333 916.137 90.9 916.571 90.2C917.021 89.5 917.571 89 918.221 88.7C918.871 88.4 919.612 88.25 920.446 88.25C921.279 88.25 922.021 88.4 922.671 88.7C923.321 89 923.862 89.5 924.296 90.2C924.746 90.9 925.087 91.8333 925.321 93C925.554 94.15 925.671 95.575 925.671 97.275C925.671 98.975 925.554 100.408 925.321 101.575C925.087 102.725 924.746 103.65 924.296 104.35C923.862 105.05 923.321 105.55 922.671 105.85C922.021 106.15 921.279 106.3 920.446 106.3ZM920.446 105.5C921.879 105.5 922.946 104.942 923.646 103.825C924.346 102.708 924.696 100.992 924.696 98.675V95.875C924.696 93.5583 924.346 91.8417 923.646 90.725C922.946 89.6083 921.879 89.05 920.446 89.05C919.012 89.05 917.946 89.6083 917.246 90.725C916.546 91.8417 916.196 93.5583 916.196 95.875V98.675C916.196 100.992 916.546 102.708 917.246 103.825C917.946 104.942 919.012 105.5 920.446 105.5ZM930.272 106.175C929.705 106.175 929.422 105.925 929.422 105.425V105.175C929.422 104.658 929.697 104.4 930.247 104.4C930.813 104.4 931.097 104.65 931.097 105.15V105.4C931.097 105.917 930.822 106.175 930.272 106.175ZM940.062 106.3C939.229 106.3 938.487 106.15 937.837 105.85C937.187 105.55 936.637 105.05 936.187 104.35C935.754 103.65 935.42 102.725 935.187 101.575C934.954 100.408 934.837 98.975 934.837 97.275C934.837 95.575 934.954 94.15 935.187 93C935.42 91.8333 935.754 90.9 936.187 90.2C936.637 89.5 937.187 89 937.837 88.7C938.487 88.4 939.229 88.25 940.062 88.25C940.895 88.25 941.637 88.4 942.287 88.7C942.937 89 943.479 89.5 943.912 90.2C944.362 90.9 944.704 91.8333 944.937 93C945.17 94.15 945.287 95.575 945.287 97.275C945.287 98.975 945.17 100.408 944.937 101.575C944.704 102.725 944.362 103.65 943.912 104.35C943.479 105.05 942.937 105.55 942.287 105.85C941.637 106.15 940.895 106.3 940.062 106.3ZM940.062 105.5C941.495 105.5 942.562 104.942 943.262 103.825C943.962 102.708 944.312 100.992 944.312 98.675V95.875C944.312 93.5583 943.962 91.8417 943.262 90.725C942.562 89.6083 941.495 89.05 940.062 89.05C938.629 89.05 937.562 89.6083 936.862 90.725C936.162 91.8417 935.812 93.5583 935.812 95.875V98.675C935.812 100.992 936.162 102.708 936.862 103.825C937.562 104.942 938.629 105.5 940.062 105.5ZM953.813 106.3C952.98 106.3 952.238 106.15 951.588 105.85C950.938 105.55 950.388 105.05 949.938 104.35C949.505 103.65 949.171 102.725 948.938 101.575C948.705 100.408 948.588 98.975 948.588 97.275C948.588 95.575 948.705 94.15 948.938 93C949.171 91.8333 949.505 90.9 949.938 90.2C950.388 89.5 950.938 89 951.588 88.7C952.238 88.4 952.98 88.25 953.813 88.25C954.646 88.25 955.388 88.4 956.038 88.7C956.688 89 957.23 89.5 957.663 90.2C958.113 90.9 958.455 91.8333 958.688 93C958.921 94.15 959.038 95.575 959.038 97.275C959.038 98.975 958.921 100.408 958.688 101.575C958.455 102.725 958.113 103.65 957.663 104.35C957.23 105.05 956.688 105.55 956.038 105.85C955.388 106.15 954.646 106.3 953.813 106.3ZM953.813 105.5C955.246 105.5 956.313 104.942 957.013 103.825C957.713 102.708 958.063 100.992 958.063 98.675V95.875C958.063 93.5583 957.713 91.8417 957.013 90.725C956.313 89.6083 955.246 89.05 953.813 89.05C952.38 89.05 951.313 89.6083 950.613 90.725C949.913 91.8417 949.563 93.5583 949.563 95.875V98.675C949.563 100.992 949.913 102.708 950.613 103.825C951.313 104.942 952.38 105.5 953.813 105.5ZM967.564 106.3C966.731 106.3 965.989 106.15 965.339 105.85C964.689 105.55 964.139 105.05 963.689 104.35C963.256 103.65 962.922 102.725 962.689 101.575C962.456 100.408 962.339 98.975 962.339 97.275C962.339 95.575 962.456 94.15 962.689 93C962.922 91.8333 963.256 90.9 963.689 90.2C964.139 89.5 964.689 89 965.339 88.7C965.989 88.4 966.731 88.25 967.564 88.25C968.397 88.25 969.139 88.4 969.789 88.7C970.439 89 970.981 89.5 971.414 90.2C971.864 90.9 972.206 91.8333 972.439 93C972.672 94.15 972.789 95.575 972.789 97.275C972.789 98.975 972.672 100.408 972.439 101.575C972.206 102.725 971.864 103.65 971.414 104.35C970.981 105.05 970.439 105.55 969.789 105.85C969.139 106.15 968.397 106.3 967.564 106.3ZM967.564 105.5C968.997 105.5 970.064 104.942 970.764 103.825C971.464 102.708 971.814 100.992 971.814 98.675V95.875C971.814 93.5583 971.464 91.8417 970.764 90.725C970.064 89.6083 968.997 89.05 967.564 89.05C966.131 89.05 965.064 89.6083 964.364 90.725C963.664 91.8417 963.314 93.5583 963.314 95.875V98.675C963.314 100.992 963.664 102.708 964.364 103.825C965.064 104.942 966.131 105.5 967.564 105.5ZM980.44 106L975.19 88.55H976.14L979.59 100.025L981.04 105.2H981.19L982.64 100.025L986.04 88.55H986.99L981.765 106H980.44ZM993.301 93.625L991.226 89.525H991.076L991.101 93.625V106H990.226V88.55H991.551L998.126 100.925L1000.25 105.025H1000.38L1000.35 100.925V88.55H1001.23V106H999.901L993.301 93.625ZM1006.17 97.25H1004.42V96.55H1006.17V88.55H1011.17C1013.19 88.55 1014.71 89.25 1015.72 90.65C1016.74 92.05 1017.25 94.2583 1017.25 97.275C1017.25 100.292 1016.74 102.5 1015.72 103.9C1014.71 105.3 1013.19 106 1011.17 106H1006.17V97.25ZM1011.17 105.2C1012.04 105.2 1012.79 105.042 1013.42 104.725C1014.07 104.408 1014.61 103.958 1015.02 103.375C1015.46 102.792 1015.77 102.092 1015.97 101.275C1016.19 100.442 1016.3 99.5083 1016.3 98.475V96.075C1016.3 95.0417 1016.19 94.1167 1015.97 93.3C1015.77 92.4667 1015.46 91.7583 1015.02 91.175C1014.61 90.5917 1014.07 90.1417 1013.42 89.825C1012.79 89.5083 1012.04 89.35 1011.17 89.35H1007.07V96.55H1010.8V97.25H1007.07V105.2H1011.17Z" fill="black"/>
<path d="M1319.84 68.907L1320.31 60.867H1319.64L1316.16 68.907L1306.11 89.543L1296.06 68.907L1292.58 61.001H1291.91L1292.37 68.907V101H1287.15V54.234H1294.25L1302.69 72.391L1305.84 81.034H1306.38L1309.53 72.391L1317.97 54.234H1325.07V101H1319.84V68.907ZM1354.78 95.372H1354.11C1353.44 97.516 1352.39 99.124 1350.96 100.196C1349.58 101.268 1347.68 101.804 1345.27 101.804C1342.19 101.804 1339.75 100.754 1337.97 98.655C1336.22 96.5557 1335.35 93.3173 1335.35 88.94V66.428H1340.44V88.605C1340.44 91.3743 1341 93.496 1342.12 94.97C1343.28 96.444 1345.05 97.181 1347.41 97.181C1349.47 97.181 1351.21 96.5557 1352.64 95.305C1354.07 94.0543 1354.78 92.29 1354.78 90.012V66.428H1359.87V101H1354.78V95.372ZM1391.88 101C1388.57 101 1386.92 99.3473 1386.92 96.042V95.372H1386.25C1385.67 97.4713 1384.6 99.0793 1383.04 100.196C1381.52 101.268 1379.69 101.804 1377.54 101.804C1374.19 101.804 1371.69 100.955 1370.04 99.258C1368.39 97.5607 1367.56 95.0593 1367.56 91.754C1367.56 88.538 1368.61 85.992 1370.71 84.116C1372.85 82.24 1376.18 81.302 1380.69 81.302H1386.92V77.483C1386.92 74.937 1386.34 73.061 1385.18 71.855C1384.06 70.649 1382.28 70.046 1379.82 70.046C1377.81 70.046 1376.18 70.4927 1374.93 71.386C1373.72 72.2347 1372.67 73.4853 1371.78 75.138L1368.77 72.324C1369.66 70.448 1371.09 68.8847 1373.05 67.634C1375.02 66.3387 1377.34 65.691 1380.02 65.691C1383.95 65.691 1386.92 66.6513 1388.93 68.572C1390.99 70.448 1392.01 73.2397 1392.01 76.947V96.511H1395.5V101H1391.88ZM1378.82 97.382C1379.98 97.382 1381.05 97.181 1382.03 96.779C1383.06 96.377 1383.93 95.8633 1384.64 95.238C1385.36 94.568 1385.92 93.831 1386.32 93.027C1386.72 92.1783 1386.92 91.3073 1386.92 90.414V85.188H1380.56C1377.88 85.188 1375.91 85.6347 1374.66 86.528C1373.46 87.4213 1372.85 88.7167 1372.85 90.414V92.29C1372.85 94.032 1373.39 95.3273 1374.46 96.176C1375.53 96.98 1376.98 97.382 1378.82 97.382ZM1426.61 70.649L1422.52 61.001H1421.85L1422.32 70.649V101H1417.09V54.234H1423.66L1439.2 84.585L1443.29 94.233H1443.96L1443.49 84.585V54.234H1448.72V101H1442.15L1426.61 70.649ZM1485.68 104.886C1485.68 108.549 1484.43 111.184 1481.93 112.792C1479.47 114.4 1475.65 115.204 1470.47 115.204C1465.52 115.204 1461.96 114.467 1459.82 112.993C1457.72 111.519 1456.67 109.397 1456.67 106.628C1456.67 104.752 1457.14 103.278 1458.08 102.206C1459.02 101.134 1460.22 100.464 1461.7 100.196V99.258C1460.8 98.7667 1460.09 98.1413 1459.55 97.382C1459.06 96.578 1458.82 95.64 1458.82 94.568C1458.82 93.1387 1459.22 91.9103 1460.02 90.883C1460.87 89.8557 1462.23 89.2303 1464.11 89.007V88.27C1462.32 87.3767 1460.91 86.059 1459.89 84.317C1458.9 82.5303 1458.41 80.297 1458.41 77.617C1458.41 73.6863 1459.49 70.716 1461.63 68.706C1463.77 66.696 1466.65 65.691 1470.27 65.691C1472.42 65.691 1474.36 66.0707 1476.1 66.83V65.624C1476.1 64.3287 1476.39 63.3907 1476.97 62.81C1477.55 62.2293 1478.49 61.939 1479.79 61.939H1484.41V66.428H1478.45V68.304C1479.61 69.3313 1480.5 70.6043 1481.13 72.123C1481.8 73.6417 1482.13 75.473 1482.13 77.617C1482.13 81.5477 1481.06 84.518 1478.92 86.528C1476.77 88.538 1473.89 89.543 1470.27 89.543C1469.2 89.543 1468.11 89.4313 1466.99 89.208C1465.74 89.4313 1464.78 89.945 1464.11 90.749C1463.48 91.5083 1463.17 92.29 1463.17 93.094C1463.17 93.9873 1463.48 94.6573 1464.11 95.104C1464.73 95.5507 1465.76 95.774 1467.19 95.774H1474.76C1478.65 95.774 1481.44 96.5557 1483.14 98.119C1484.83 99.6823 1485.68 101.938 1485.68 104.886ZM1480.93 105.221C1480.93 103.702 1480.46 102.541 1479.52 101.737C1478.58 100.978 1476.97 100.598 1474.69 100.598H1464.18C1463.15 101.089 1462.41 101.715 1461.96 102.474C1461.56 103.233 1461.36 104.194 1461.36 105.355C1461.36 107.097 1461.9 108.459 1462.97 109.442C1464.04 110.469 1465.76 110.983 1468.13 110.983H1472.55C1475.32 110.983 1477.4 110.514 1478.78 109.576C1480.21 108.683 1480.93 107.231 1480.93 105.221ZM1470.27 85.389C1472.37 85.389 1474 84.853 1475.16 83.781C1476.32 82.709 1476.91 81.0563 1476.91 78.823V76.344C1476.91 74.1107 1476.32 72.458 1475.16 71.386C1474 70.314 1472.37 69.778 1470.27 69.778C1468.17 69.778 1466.54 70.314 1465.38 71.386C1464.22 72.458 1463.64 74.1107 1463.64 76.344V78.823C1463.64 81.0563 1464.22 82.709 1465.38 83.781C1466.54 84.853 1468.17 85.389 1470.27 85.389ZM1513.06 101C1509.75 101 1508.1 99.3473 1508.1 96.042V95.372H1507.43C1506.85 97.4713 1505.78 99.0793 1504.21 100.196C1502.69 101.268 1500.86 101.804 1498.72 101.804C1495.37 101.804 1492.87 100.955 1491.21 99.258C1489.56 97.5607 1488.74 95.0593 1488.74 91.754C1488.74 88.538 1489.78 85.992 1491.88 84.116C1494.03 82.24 1497.36 81.302 1501.87 81.302H1508.1V77.483C1508.1 74.937 1507.52 73.061 1506.36 71.855C1505.24 70.649 1503.45 70.046 1501 70.046C1498.99 70.046 1497.36 70.4927 1496.11 71.386C1494.9 72.2347 1493.85 73.4853 1492.96 75.138L1489.94 72.324C1490.83 70.448 1492.26 68.8847 1494.23 67.634C1496.19 66.3387 1498.52 65.691 1501.2 65.691C1505.13 65.691 1508.1 66.6513 1510.11 68.572C1512.16 70.448 1513.19 73.2397 1513.19 76.947V96.511H1516.67V101H1513.06ZM1499.99 97.382C1501.15 97.382 1502.22 97.181 1503.21 96.779C1504.23 96.377 1505.11 95.8633 1505.82 95.238C1506.53 94.568 1507.09 93.831 1507.5 93.027C1507.9 92.1783 1508.1 91.3073 1508.1 90.414V85.188H1501.73C1499.05 85.188 1497.09 85.6347 1495.84 86.528C1494.63 87.4213 1494.03 88.7167 1494.03 90.414V92.29C1494.03 94.032 1494.56 95.3273 1495.64 96.176C1496.71 96.98 1498.16 97.382 1499.99 97.382ZM1541.97 66.428H1546.93L1533.26 109.844C1532.99 110.737 1532.7 111.474 1532.39 112.055C1532.08 112.68 1531.67 113.149 1531.18 113.462C1530.74 113.819 1530.18 114.065 1529.51 114.199C1528.88 114.333 1528.08 114.4 1527.1 114.4H1523.34V109.911H1528.64L1530.65 102.876L1519.19 66.428H1524.28L1529.57 83.848L1532.79 96.511H1533.46L1536.68 83.848L1541.97 66.428Z" fill="black"/>
<path d="M1281.65 109.375H1548.33V113.395H1281.65V109.375Z" fill="black"/>
<defs>
<linearGradient id="paint0_linear_428_6" x1="0" y1="81" x2="1676" y2="81" gradientUnits="userSpaceOnUse">
<stop stop-color="#9DA6DB" stop-opacity="0.51"/>
<stop offset="0.55" stop-color="#EFEFEF"/>
<stop offset="1" stop-color="#9DA6DB" stop-opacity="0.49"/>
</linearGradient>
</defs>
</svg>
