<svg width="460" height="460" viewBox="0 0 460 460" fill="none" xmlns="http://www.w3.org/2000/svg">
<rect y="65.453" width="460" height="384.134" fill="#D9D9D9"/>
<g filter="url(#filter0_d_670_5)">
<path d="M119.516 119H339.516V187.8H328.316L315.516 143.4C314.716 139.933 313.783 137.533 312.716 136.2C311.916 134.6 310.183 133.667 307.516 133.4C304.85 133.133 300.316 133 293.916 133H253.516V357.4C253.516 366.467 253.916 371.933 254.716 373.8C255.516 375.4 258.05 376.467 262.316 377L284.316 379.8V391H174.716V379.8L196.716 377C200.983 376.467 203.516 375.4 204.316 373.8C205.116 371.933 205.516 366.467 205.516 357.4V133H165.116C158.983 133 154.45 133.133 151.516 133.4C148.85 133.667 147.116 134.6 146.316 136.2C145.516 137.533 144.583 139.933 143.516 143.4L130.716 187.8H119.516V119Z" fill="black"/>
</g>
<defs>
<filter id="filter0_d_670_5" x="115.516" y="119" width="228" height="280" filterUnits="userSpaceOnUse" color-interpolation-filters="sRGB">
<feFlood flood-opacity="0" result="BackgroundImageFix"/>
<feColorMatrix in="SourceAlpha" type="matrix" values="0 0 0 0 0 0 0 0 0 0 0 0 0 0 0 0 0 0 127 0" result="hardAlpha"/>
<feOffset dy="4"/>
<feGaussianBlur stdDeviation="2"/>
<feComposite in2="hardAlpha" operator="out"/>
<feColorMatrix type="matrix" values="0 0 0 0 0 0 0 0 0 0 0 0 0 0 0 0 0 0 0.25 0"/>
<feBlend mode="normal" in2="BackgroundImageFix" result="effect1_dropShadow_670_5"/>
<feBlend mode="normal" in="SourceGraphic" in2="effect1_dropShadow_670_5" result="shape"/>
</filter>
</defs>
</svg>
